<?xml version="1.0" encoding="UTF-8" standalone="no"?>
<!-- Uploaded to SVGRepo https://www.svgrepo.com -->

<svg
   xmlns:dc="http://purl.org/dc/elements/1.1/"
   xmlns:cc="http://creativecommons.org/ns#"
   xmlns:rdf="http://www.w3.org/1999/02/22-rdf-syntax-ns#"
   xmlns:svg="http://www.w3.org/2000/svg"
   xmlns="http://www.w3.org/2000/svg"
   xmlns:sodipodi="http://sodipodi.sourceforge.net/DTD/sodipodi-0.dtd"
   xmlns:inkscape="http://www.inkscape.org/namespaces/inkscape"
   version="1.1"
   id="Ebene_1"
   x="0px"
   y="0px"
   width="64px"
   height="64px"
   viewBox="0 0 64 64"
   enable-background="new 0 0 64 64"
   xml:space="preserve"
   sodipodi:docname="accelerator2.svg"
   inkscape:version="0.92.3 (2405546, 2018-03-11)"><metadata
   id="metadata15"><rdf:RDF><cc:Work
       rdf:about=""><dc:format>image/svg+xml</dc:format><dc:type
         rdf:resource="http://purl.org/dc/dcmitype/StillImage" /><dc:title></dc:title></cc:Work></rdf:RDF></metadata><defs
   id="defs13" /><sodipodi:namedview
   pagecolor="#ffffff"
   bordercolor="#666666"
   borderopacity="1"
   objecttolerance="10"
   gridtolerance="10"
   guidetolerance="10"
   inkscape:pageopacity="0"
   inkscape:pageshadow="2"
   inkscape:window-width="3840"
   inkscape:window-height="1993"
   id="namedview11"
   showgrid="false"
   inkscape:zoom="7.375"
   inkscape:cx="167.20323"
   inkscape:cy="54.278598"
   inkscape:window-x="0"
   inkscape:window-y="30"
   inkscape:window-maximized="1"
   inkscape:current-layer="g8" />
<g
   id="g8">
	<path
   d="M32,0c-8.547,0-16.583,3.33-22.626,9.374C3.329,15.417,0,23.453,0,32s3.329,16.583,9.373,22.626   C15.417,60.671,23.452,64,32,64c8.548,0,16.583-3.33,22.627-9.374C60.671,48.583,64,40.547,64,32s-3.329-16.583-9.373-22.626   C48.583,3.329,40.547,0,32,0z M51.798,51.798C46.51,57.087,39.479,60,32,60s-14.51-2.913-19.798-8.203C6.912,46.509,4,39.479,4,32   s2.913-14.509,8.202-19.798C17.49,6.913,24.521,4,32,4s14.511,2.913,19.799,8.203C57.088,17.491,60,24.521,60,32   S57.088,46.509,51.798,51.798z"
   id="path2" />
	<path
   d="M32,8c-6.411,0-12.438,2.497-16.97,7.03C10.497,19.563,8,25.59,8,32c0,1.104,0.896,2,2,2s2-0.896,2-2   c0-5.341,2.081-10.363,5.859-14.142C21.636,14.081,26.658,12,32,12c5.342,0,10.365,2.081,14.142,5.858   C49.92,21.637,52,26.659,52,32c0,1.104,0.896,2,2,2s2-0.896,2-2c0-6.409-2.496-12.436-7.029-16.97C44.438,10.497,38.411,8,32,8z"
   id="path4" />
	<path
   d="M32,31c-0.274,0-0.544,0.029-0.807,0.083l-5.698-6.411c-0.733-0.826-1.998-0.9-2.823-0.166   c-0.826,0.734-0.9,1.998-0.166,2.823l5.71,6.424c-0.133,0.404-0.218,0.826-0.216,1.264c0.004,1.068,0.425,2.071,1.184,2.823   C29.938,38.588,30.938,39,32,39c1.075,0,2.083-0.42,2.841-1.184c1.551-1.567,1.54-4.104-0.024-5.655C34.063,31.412,33.062,31,32,31   z"
   id="path6" />
<path
   style="stroke-width:0.04793944"
   d="M 30.279513,63.937956 C 24.148524,63.580764 18.400436,61.576459 13.524747,58.095715 7.4642284,53.769127 3.1092644,47.579666 1.179327,40.549879 0.44398109,37.871385 0.10232756,35.48194 0.0448913,32.615901 -0.02553359,29.101736 0.42946924,25.831697 1.4490177,22.524648 4.2138724,13.556453 10.999139,6.0939328 19.673048,2.4816359 22.83639,1.1642443 26.03157,0.40165811 29.632331,0.1046766 30.56878,0.02744068 33.456228,0.0279338 34.378336,0.10548711 39.903921,0.57021293 44.772202,2.193735 49.239563,5.0615545 c 3.185111,2.0446815 6.102039,4.7681232 8.434691,7.8752055 5.048277,6.724279 7.210428,15.390392 5.945637,23.830688 -1.018263,6.795124 -4.125789,12.943524 -9.011034,17.828764 -2.523781,2.523782 -5.230854,4.473388 -8.389479,6.042009 -3.657413,1.81633 -7.149372,2.804736 -11.35878,3.215121 -0.733502,0.07151 -3.825655,0.128627 -4.581085,0.08461 z m 4.111858,-4.022273 c 2.357522,-0.206912 4.307318,-0.608471 6.506729,-1.340056 4.0195,-1.337002 7.571043,-3.509148 10.660912,-6.520282 3.070517,-2.992275 5.353791,-6.527476 6.805234,-10.536568 0.776351,-2.144385 1.237691,-4.182644 1.526809,-6.745601 0.106109,-0.940653 0.122131,-4.319394 0.02512,-5.297309 -0.227832,-2.296619 -0.650567,-4.296439 -1.35486,-6.40938 C 55.805958,14.800154 49.196307,8.1905629 40.931534,5.4368657 38.05145,4.4772657 35.611805,4.0629862 32.531179,4.0103905 30.539355,3.9763839 29.293919,4.0572046 27.546965,4.3338334 20.752705,5.4096999 14.659188,8.935631 10.235339,14.350973 5.1643116,20.558541 3.03972,28.65444 4.3727521,36.690753 c 0.6288492,3.791078 2.0841867,7.491676 4.2136874,10.714466 1.0731125,1.624049 2.1041565,2.875288 3.6174365,4.389987 1.163655,1.164747 1.892253,1.803262 3.035993,2.660625 3.111118,2.332134 6.67712,3.985498 10.485397,4.861529 1.403841,0.32293 3.284681,0.584497 4.817914,0.670031 0.969017,0.05406 2.805031,0.01985 3.848191,-0.07171 z"
   id="path3720"
   inkscape:connector-curvature="0" /><path
   style="stroke-width:0.04793944"
   d="M 29.895998,63.918104 C 24.723617,63.548428 19.919331,62.047718 15.587238,59.448494 8.0781352,54.943087 2.6786266,47.494706 0.80388952,39.05552 0.30209169,36.796662 0.08820555,34.976501 0.04435679,32.591931 -0.0388859,28.065053 0.74033337,23.904136 2.4527556,19.731435 3.0460431,18.285757 4.1279472,16.218054 5.0297303,14.806398 8.0913243,10.013763 12.545795,5.9876286 17.623501,3.42363 26.236532,-0.92553935 36.5412,-1.1101255 45.356468,2.9268531 c 4.43123,2.0292946 8.520872,5.2404415 11.6494,9.1469969 6.603394,8.245577 8.672101,19.244289 5.536291,29.434817 -2.353941,7.649664 -7.727929,14.31724 -14.757511,18.309828 -3.97139,2.255628 -8.191473,3.577007 -12.878978,4.032628 -0.909546,0.08841 -4.110982,0.13121 -5.009672,0.06698 z m 3.225219,-3.929591 c 2.184103,-0.09424 3.877117,-0.34155 5.915184,-0.864066 3.657612,-0.937738 7.123982,-2.64049 10.116056,-4.96922 5.792974,-4.508667 9.546301,-10.959 10.581985,-18.185809 0.210133,-1.466279 0.241538,-1.984786 0.24231,-4.0007 7.67e-4,-2.007443 -0.03787,-2.604238 -0.268519,-4.146761 C 59.112193,23.835749 57.661977,20.029879 55.463383,16.68201 50.92613,9.7729807 43.698052,5.2406922 35.576822,4.2123565 33.174705,3.9081929 30.364019,3.9274102 28.00239,4.2641447 24.123698,4.8171904 20.418322,6.181708 17.048227,8.2980523 13.767489,10.358283 10.780222,13.290133 8.5851547,16.604127 4.5599755,22.681125 3.0906262,30.220833 4.5164923,37.481754 c 0.8838381,4.50076 2.9394258,8.82186 5.8749497,12.349872 5.132069,6.167893 12.421226,9.806444 20.343496,10.154935 1.203837,0.05295 1.204249,0.05295 2.386279,0.002 z"
   id="path3722"
   inkscape:connector-curvature="0" /><path
   style="stroke-width:0.04793944"
   d="M 30.207604,63.934907 C 27.238029,63.777378 24.08568,63.13612 21.157009,62.093821 14.335121,59.665942 8.3713132,54.759949 4.5656697,48.445323 2.0772013,44.316255 0.62841769,39.863011 0.14107523,34.845085 0.02174463,33.616396 0.02205909,30.363372 0.14162671,29.140291 0.53943312,25.071051 1.5163109,21.549443 3.2135766,18.066025 5.4729079,13.42904 8.7254112,9.4884418 12.853526,6.3866611 19.837633,1.1389458 28.670624,-0.98821408 37.398521,0.47573804 45.081391,1.7644052 52.030679,5.8737316 57.0121,12.07385 c 7.293066,9.077296 9.007543,21.605577 4.438143,32.431033 -0.399935,0.947492 -1.360095,2.847424 -1.877587,3.715306 -2.792444,4.683185 -6.620782,8.519602 -11.291882,11.315727 -0.707745,0.423655 -2.367288,1.285003 -3.186171,1.653705 -3.465802,1.560477 -7.28683,2.49497 -11.157854,2.728828 -0.74473,0.04499 -3.003373,0.05496 -3.729145,0.01646 z M 33.99482,59.938536 C 44.719609,59.222771 54.200749,52.233622 58.117957,42.15585 59.579617,38.395436 60.192412,34.40821 59.952538,30.218929 59.719854,26.155217 58.520121,22.030476 56.530174,18.452648 52.237657,10.734923 44.607297,5.4722306 35.960337,4.2655458 34.485561,4.0597405 33.822742,4.0202946 31.885485,4.0230424 29.990348,4.0257303 29.38712,4.0655286 27.858572,4.2887195 19.596804,5.4950608 12.283484,10.413039 7.8855016,17.719981 c -0.4976172,0.826756 -1.4313198,2.696147 -1.801176,3.606181 -0.975908,2.40123 -1.6077552,4.840983 -1.905757,7.358705 -0.2402859,2.030097 -0.2399895,4.584156 7.676e-4,6.615643 0.820791,6.925762 4.1348284,13.194032 9.4172508,17.812072 5.636011,4.927159 12.821367,7.331628 20.398233,6.825954 z"
   id="path3724"
   inkscape:connector-curvature="0" /><path
   style="stroke-width:0.04793944"
   d="M 30.135695,63.938267 C 24.182717,63.514041 19.021336,61.786035 14.291709,58.633782 8.8436691,55.002715 4.5887945,49.7316 2.2095757,43.665942 -0.526151,36.691392 -0.70054986,28.775025 1.7247663,21.659326 4.0042152,14.97159 8.5388663,9.1401412 14.507437,5.2211282 c 1.444501,-0.9484719 3.448471,-2.024319 4.957881,-2.6616784 3.112187,-1.3141432 6.309567,-2.10643323 9.807467,-2.43022613 1.241151,-0.11489061 4.223946,-0.11489061 5.465097,0 7.676904,0.71063419 14.448118,3.85971673 19.819532,9.21745023 4.972437,4.9597771 8.102135,11.1724001 9.087621,18.0394471 0.248513,1.73168 0.306036,2.581626 0.308514,4.558628 0.0023,1.823476 -0.03155,2.449731 -0.214999,3.978973 -1.181141,9.846094 -6.986095,18.647729 -15.649534,23.728265 -0.87301,0.51196 -2.91538,1.525481 -3.859125,1.91508 -2.933997,1.211214 -5.925109,1.945958 -9.300252,2.284526 -0.708484,0.07107 -4.141859,0.133147 -4.793944,0.08667 z m 3.835156,-3.998677 c 6.776218,-0.475578 13.01228,-3.324097 17.834786,-8.146598 4.512367,-4.512374 7.275069,-10.222282 8.02616,-16.588361 0.042,-0.355951 0.101306,-1.234953 0.1318,-1.953339 C 60.119324,29.582594 59.654062,26.30091 58.496943,22.906306 55.687615,14.664698 49.057724,8.111355 40.778251,5.3921818 37.523186,4.3231423 34.212816,3.8769539 30.699511,4.0337183 28.627035,4.1261926 27.120793,4.3439942 25.149993,4.8361754 18.92728,6.3902144 13.440393,10.060339 9.518738,15.291766 7.7365878,17.669128 6.2923756,20.45717 5.3617809,23.316745 c -0.7229084,2.221386 -1.1435705,4.415001 -1.3094204,6.828196 -0.073033,1.062662 -0.030895,3.737225 0.073673,4.676174 0.3227714,2.898263 0.9165575,5.274902 1.9582921,7.838099 0.3551206,0.873777 1.29319,2.761652 1.7627329,3.547519 2.4498325,4.100246 5.7720255,7.430297 9.8776365,9.900995 0.735817,0.442803 2.538442,1.357156 3.350445,1.699463 2.767805,1.166784 5.818692,1.901125 8.844828,2.128924 0.769622,0.05794 3.244666,0.06006 4.050883,0.0035 z"
   id="path3726"
   inkscape:connector-curvature="0" /><path
   style="stroke-width:0.04793944;fill:#ffffff"
   d="M 30.063786,63.935204 C 23.577871,63.507455 17.472924,61.215331 12.47001,57.32957 10.424805,55.741063 8.2569594,53.573218 6.6684495,51.528011 2.9714958,46.768187 0.72781365,41.053896 0.14623203,34.916994 0.04347406,33.832683 0.00403426,31.280954 0.07250676,30.14702 0.3071831,26.260677 1.1677994,22.648296 2.687945,19.168887 3.0566891,18.324882 4.0046187,16.480357 4.4617964,15.717247 7.2464352,11.069195 11.051813,7.2590252 15.678119,4.4868003 c 0.946115,-0.5669414 2.816111,-1.517386 3.81502,-1.939023 6.586654,-2.78021131 13.948682,-3.28404766 20.869514,-1.4282507 6.284832,1.6852558 11.899717,5.2868022 16.174799,10.3749764 5.60251,6.668069 8.193291,15.253366 7.249028,24.021734 -0.943592,8.762104 -5.478313,16.698914 -12.61479,22.078793 -4.994875,3.765423 -10.962293,5.956486 -17.224809,6.324455 -0.742189,0.0436 -3.303041,0.05398 -3.883095,0.01572 z m 4.746005,-4.063601 c 3.481493,-0.37087 6.704584,-1.303287 9.7186,-2.811515 4.117202,-2.060269 7.786713,-5.23676 10.461134,-9.055626 2.801121,-3.999782 4.522066,-8.784529 4.922744,-13.686711 0.07578,-0.927123 0.07528,-3.831072 -8.15e-4,-4.698065 C 59.402816,23.823811 57.215967,18.531863 53.452644,13.99003 52.789153,13.18928 50.809441,11.209533 50.006585,10.543907 46.292181,7.4643901 42.159605,5.4725135 37.559963,4.5447052 34.346116,3.8964304 30.674856,3.8295869 27.451086,4.3606503 22.440176,5.1861161 17.767621,7.3442218 13.938824,10.601539 8.7945729,14.977966 5.4518457,20.844134 4.3719437,27.390502 c -0.2929374,1.775787 -0.3852602,3.143757 -0.3478032,5.15349 0.046272,2.482708 0.2949073,4.319631 0.8986709,6.639403 0.7316388,2.811096 2.0737055,5.801396 3.7007658,8.245794 4.4065388,6.620116 11.3207738,11.059759 19.0672068,12.243081 0.685441,0.104705 1.761995,0.225359 2.56476,0.287436 0.615739,0.04762 3.87143,-0.01536 4.554247,-0.0881 z"
   id="path3728"
   inkscape:connector-curvature="0" /><path
   style="fill:#ffffff;stroke-width:0.04793944"
   d="M 9.3139157,33.843128 C 8.7618076,33.611747 8.4385951,33.305373 8.1927164,32.780339 l -0.1331347,-0.284287 0.00435,-1.126577 c 0.014295,-3.701397 1.1311911,-7.799859 3.0309073,-11.12195 1.919322,-3.356376 4.475943,-6.104989 7.655853,-8.230775 7.063285,-4.7218425 16.306275,-5.298452 23.915917,-1.491957 2.428402,1.214735 4.419228,2.659847 6.339791,4.601964 0.871236,0.881012 1.077054,1.107242 1.627575,1.788976 3.152412,3.903772 4.950196,8.502386 5.29127,13.534722 0.07826,1.154603 0.06563,1.770482 -0.04347,2.121027 -0.254463,0.81759 -0.925434,1.336058 -1.783054,1.377791 -0.6452,0.0314 -1.164307,-0.182703 -1.575433,-0.649768 -0.398492,-0.452711 -0.522583,-0.937398 -0.525912,-2.054164 -0.0018,-0.605374 -0.119898,-1.778643 -0.266324,-2.645961 -0.579033,-3.429746 -2.081621,-6.690316 -4.329455,-9.394787 -0.650028,-0.782078 -1.826207,-1.958239 -2.608434,-2.608391 -3.094676,-2.57216 -6.857228,-4.138483 -10.866865,-4.523796 -0.862743,-0.08291 -2.839135,-0.09513 -3.622819,-0.02241 -2.558573,0.237422 -4.769481,0.83957 -6.969356,1.898129 -1.990696,0.957903 -3.703464,2.157419 -5.295898,3.708915 -2.543458,2.478072 -4.346119,5.496201 -5.306148,8.883887 -0.455618,1.607755 -0.666669,3.026623 -0.757927,5.095436 -0.03666,0.831007 -0.04428,0.879103 -0.187919,1.186058 -0.193985,0.414536 -0.539705,0.76031 -0.958594,0.95874 -0.281894,0.133534 -0.381289,0.154744 -0.778572,0.166138 -0.393071,0.01127 -0.4937238,-0.003 -0.7351532,-0.104169 z"
   id="path3730"
   inkscape:connector-curvature="0" /><path
   style="fill:#ffffff;stroke-width:0.04793944"
   d="m 31.45403,38.938675 c -1.570419,-0.226471 -2.850022,-1.355015 -3.294284,-2.905389 -0.14249,-0.497258 -0.151724,-1.399207 -0.01983,-1.937012 l 0.08959,-0.365295 -2.930429,-3.297064 c -3.38213,-3.80528 -3.241174,-3.612473 -3.241174,-4.433432 0,-0.475539 0.0094,-0.524341 0.159506,-0.82944 0.202898,-0.412358 0.540306,-0.749826 0.952658,-0.952826 0.304851,-0.150078 0.353817,-0.159507 0.828375,-0.159507 0.467192,0 0.527343,0.01109 0.815979,0.150442 0.171383,0.08274 0.381104,0.212179 0.466045,0.287636 0.08494,0.07546 1.437052,1.58221 3.004688,3.348339 l 2.850249,3.211144 0.782528,0.0012 c 0.912391,0.0014 1.168867,0.05547 1.837196,0.387437 0.823023,0.408808 1.396325,0.988703 1.797518,1.818189 0.389952,0.806247 0.505555,1.555576 0.364675,2.363799 -0.25577,1.467346 -1.256315,2.657421 -2.630595,3.1289 -0.6059,0.207869 -1.228592,0.27001 -1.832691,0.182892 z"
   id="path3732"
   inkscape:connector-curvature="0" /></g>
</svg>