<?xml version="1.0" encoding="UTF-8" standalone="no"?>
<!-- Uploaded to SVGRepo https://www.svgrepo.com -->

<svg
   xmlns:dc="http://purl.org/dc/elements/1.1/"
   xmlns:cc="http://creativecommons.org/ns#"
   xmlns:rdf="http://www.w3.org/1999/02/22-rdf-syntax-ns#"
   xmlns:svg="http://www.w3.org/2000/svg"
   xmlns="http://www.w3.org/2000/svg"
   xmlns:sodipodi="http://sodipodi.sourceforge.net/DTD/sodipodi-0.dtd"
   xmlns:inkscape="http://www.inkscape.org/namespaces/inkscape"
   version="1.1"
   id="Ebene_1"
   x="0px"
   y="0px"
   width="64px"
   height="64px"
   viewBox="0 0 64 64"
   enable-background="new 0 0 64 64"
   xml:space="preserve"
   sodipodi:docname="hammer2.svg"
   inkscape:version="0.92.3 (2405546, 2018-03-11)"><metadata
   id="metadata11"><rdf:RDF><cc:Work
       rdf:about=""><dc:format>image/svg+xml</dc:format><dc:type
         rdf:resource="http://purl.org/dc/dcmitype/StillImage" /><dc:title></dc:title></cc:Work></rdf:RDF></metadata><defs
   id="defs9" /><sodipodi:namedview
   pagecolor="#ffffff"
   bordercolor="#666666"
   borderopacity="1"
   objecttolerance="10"
   gridtolerance="10"
   guidetolerance="10"
   inkscape:pageopacity="0"
   inkscape:pageshadow="2"
   inkscape:window-width="3840"
   inkscape:window-height="1993"
   id="namedview7"
   showgrid="false"
   inkscape:zoom="10.429825"
   inkscape:cx="106.81084"
   inkscape:cy="-9.8075524"
   inkscape:window-x="0"
   inkscape:window-y="30"
   inkscape:window-maximized="1"
   inkscape:current-layer="Ebene_1" />
<g
   id="g4">
	<path
   d="M45.414,34.586c-0.78-0.781-2.048-0.781-2.828,0L41,36.172L24.828,20L35.414,9.414c0.781-0.781,0.781-2.047,0-2.828l-4-4   c-0.775-0.776-2.038-0.775-2.821-0.007c-0.021,0.021-2.164,2.088-4.815,2.088c-1.536,0-2.963-0.681-4.364-2.081   c-0.78-0.781-2.048-0.781-2.828,0l-16,16c-0.781,0.781-0.781,2.047,0,2.828l10,10C10.976,31.805,11.488,32,12,32   s1.024-0.195,1.414-0.586L22,22.828L38.172,39l-1.586,1.586c-0.781,0.781-0.781,2.047,0,2.828l18,18C54.976,61.805,55.488,62,56,62   s1.024-0.195,1.414-0.586l6-6c0.781-0.781,0.781-2.047,0-2.828L45.414,34.586z M12,27.171L4.829,20L18.104,6.725   c1.755,1.29,3.657,1.941,5.674,1.941c2.552,0,4.7-1.082,6.062-1.998L31.171,8L12,27.171z M56,57.171L40.829,42L44,38.829L59.171,54   L56,57.171z"
   id="path2" />
</g>
<path
   style="fill:#ffffff;stroke-width:0.04793944"
   d="M 55.452477,61.899049 C 55.34701,61.864121 55.163642,61.786842 55.044992,61.727316 54.887846,61.64848 52.321662,59.111098 45.594834,52.383214 35.505605,42.292401 36.167799,42.99234 36.05259,42.297077 c -0.03757,-0.226737 -0.03711,-0.3963 0.0017,-0.616465 0.09915,-0.56288 0.232184,-0.754085 1.22386,-1.759006 l 0.912449,-0.924636 -8.099586,-8.099692 -8.099586,-8.099692 -4.434724,4.427904 c -5.092163,5.084333 -4.644291,4.704015 -5.539567,4.704015 -0.514482,0 -0.539751,-0.0051 -0.88688,-0.177538 C 10.787058,31.581456 10.566826,31.368007 5.5656618,26.35878 -0.09992819,20.684056 0.1700439,20.980396 0.05120346,20.305727 -0.01745029,19.915974 0.05305124,19.498222 0.25673681,19.087855 0.38648221,18.826455 1.3063581,17.890449 8.6079142,10.590233 16.366247,2.8333246 16.831165,2.3777369 17.141454,2.2279508 17.779795,1.9198036 18.63387,1.99717 19.148011,2.4097147 c 0.123964,0.099468 0.425982,0.3603764 0.671152,0.5797955 1.534686,1.373496 3.114627,1.8985251 4.860844,1.6153035 1.215044,-0.1970699 2.638637,-0.9047603 3.796691,-1.8873947 0.218704,-0.1855749 0.466791,-0.3798099 0.551304,-0.4316333 0.484918,-0.2973513 1.267921,-0.3259318 1.807571,-0.065978 0.280401,0.1350715 0.540261,0.3795871 2.594894,2.4416757 2.632861,2.6424146 2.505885,2.4730637 2.508965,3.3462404 0.0032,0.8943534 0.507908,0.3159453 -5.710675,6.5440052 l -5.433118,5.441398 8.099746,8.09964 8.099747,8.09964 0.924635,-0.912449 c 1.014409,-1.001039 1.20308,-1.130776 1.78455,-1.227129 0.238593,-0.03954 0.398518,-0.03928 0.615105,10e-4 0.676847,0.125873 0.02264,-0.494101 10.04458,9.518977 8.916679,8.908792 9.224326,9.222048 9.396131,9.567413 0.171091,0.343927 0.177625,0.375668 0.177625,0.86291 0,0.472462 -0.01044,0.528005 -0.158142,0.841428 -0.149519,0.317283 -0.333755,0.511193 -3.379731,3.557164 -3.058604,3.058609 -3.238564,3.229503 -3.557164,3.377967 -0.288045,0.134226 -0.39669,0.158248 -0.767031,0.169619 -0.265086,0.0081 -0.505397,-0.01124 -0.623213,-0.05026 z m 2.15738,-6.311534 1.581566,-1.582112 -7.598076,-7.59819 -7.598076,-7.59819 -1.594253,1.59372 -1.594253,1.59372 7.586466,7.58658 c 4.172558,4.17262 7.5974,7.586579 7.610765,7.586579 0.01337,0 0.736005,-0.711949 1.605861,-1.582107 z M 31.171149,8.0071261 c 0,-0.026744 -0.297981,-0.3460369 -0.662179,-0.7095382 L 29.846791,6.6366764 29.418348,6.9073992 C 27.949556,7.8354924 26.16487,8.4544198 24.507566,8.6104541 22.524218,8.7971854 20.331632,8.2056045 18.563075,7.0065724 l -0.455424,-0.3087652 -6.651571,6.6472968 -6.6515709,6.647297 3.6073342,3.607572 3.6073347,3.607572 9.575985,-9.575896 c 5.266792,-5.266743 9.575986,-9.5977784 9.575986,-9.6245229 z"
   id="path13"
   inkscape:connector-curvature="0" /></svg>