<?xml version="1.0" encoding="UTF-8" standalone="no"?>
<!-- Uploaded to SVGRepo https://www.svgrepo.com -->

<svg
   xmlns:dc="http://purl.org/dc/elements/1.1/"
   xmlns:cc="http://creativecommons.org/ns#"
   xmlns:rdf="http://www.w3.org/1999/02/22-rdf-syntax-ns#"
   xmlns:svg="http://www.w3.org/2000/svg"
   xmlns="http://www.w3.org/2000/svg"
   xmlns:sodipodi="http://sodipodi.sourceforge.net/DTD/sodipodi-0.dtd"
   xmlns:inkscape="http://www.inkscape.org/namespaces/inkscape"
   version="1.1"
   id="Ebene_1"
   x="0px"
   y="0px"
   width="64px"
   height="64px"
   viewBox="0 0 64 64"
   enable-background="new 0 0 64 64"
   xml:space="preserve"
   sodipodi:docname="play2.svg"
   inkscape:version="0.92.3 (2405546, 2018-03-11)"><metadata
   id="metadata13"><rdf:RDF><cc:Work
       rdf:about=""><dc:format>image/svg+xml</dc:format><dc:type
         rdf:resource="http://purl.org/dc/dcmitype/StillImage" /><dc:title></dc:title></cc:Work></rdf:RDF></metadata><defs
   id="defs11" /><sodipodi:namedview
   pagecolor="#ffffff"
   bordercolor="#666666"
   borderopacity="1"
   objecttolerance="10"
   gridtolerance="10"
   guidetolerance="10"
   inkscape:pageopacity="0"
   inkscape:pageshadow="2"
   inkscape:window-width="3840"
   inkscape:window-height="1993"
   id="namedview9"
   showgrid="false"
   inkscape:zoom="3.6875"
   inkscape:cx="32"
   inkscape:cy="32"
   inkscape:window-x="0"
   inkscape:window-y="30"
   inkscape:window-maximized="1"
   inkscape:current-layer="Ebene_1" />
<g
   id="g6">
	<path
   d="M32-0.001c-8.547,0-16.583,3.329-22.626,9.374C3.329,15.417,0,23.453,0,32s3.329,16.583,9.373,22.627   c6.044,6.045,14.08,9.374,22.627,9.374s16.583-3.329,22.627-9.374C60.671,48.583,64,40.547,64,32s-3.329-16.583-9.374-22.627   C48.583,3.328,40.547-0.001,32-0.001z M51.799,51.799C46.51,57.088,39.479,60.001,32,60.001c-7.479,0-14.51-2.913-19.798-8.202   C6.913,46.51,4,39.479,4,32s2.913-14.51,8.202-19.799C17.49,6.912,24.521,3.999,32,3.999c7.479,0,14.51,2.913,19.799,8.202   C57.088,17.49,60,24.521,60,32S57.088,46.51,51.799,51.799z"
   id="path2" />
	<path
   d="M42.236,30.428l-14-11c-0.602-0.473-1.421-0.561-2.11-0.227C25.437,19.536,25,20.234,25,21v22   c0,0.766,0.437,1.464,1.125,1.799C26.403,44.934,26.702,45,27,45c0.44,0,0.877-0.146,1.236-0.428l14-11   C42.718,33.193,43,32.613,43,32S42.718,30.807,42.236,30.428z M29,38.885v-13.77L37.763,32L29,38.885z"
   id="path4" />
</g>
<path
   style="fill:#ffffff;stroke-width:0.27118644"
   d="M 25.67392,44.139699 C 25.125371,43.442332 25.111864,43.148786 25.111864,31.923983 V 20.422804 l 0.66564,-0.665639 c 1.23644,-1.236441 0.92391,-1.424285 11.402157,6.853211 5.113787,4.039736 5.428442,4.340871 5.506196,5.269607 0.09729,1.162086 0.539564,0.755016 -8.760433,8.063139 -6.723958,5.28382 -7.204169,5.528047 -8.251504,4.196577 z m 7.72886,-8.529908 c 2.299798,-1.80309 4.24236,-3.3769 4.316806,-3.497356 0.117097,-0.189467 -8.330741,-7.054808 -8.680977,-7.054808 -0.07157,0 -0.130134,3.111865 -0.130134,6.915254 0,3.80339 0.07039,6.915255 0.156428,6.915255 0.08603,0 2.03808,-1.475256 4.337877,-3.278345 z"
   id="path15"
   inkscape:connector-curvature="0" /><path
   style="fill:#ffffff;stroke-width:0.27118644"
   d="M 26.628885,63.401451 C 11.205588,60.61629 0.16271186,47.497763 0.16271186,31.960616 0.16271186,16.908577 10.701772,4.0066169 25.654237,0.75378853 28.683032,0.09489042 35.442419,0.09164897 38.355967,0.74769741 45.123051,2.271454 50.372955,5.2278576 55.082831,10.167177 c 4.239642,4.446178 6.755398,9.211329 8.170986,15.476857 0.650896,2.880929 0.643951,9.648687 -0.01304,12.701729 -2.799718,13.010432 -13.001641,22.839574 -26.028849,25.077743 -2.950755,0.506962 -7.708437,0.497047 -10.583049,-0.02205 z M 38.813402,59.27677 C 44.344971,57.821925 48.65219,55.27808 52.504203,51.190978 65.173329,37.748645 61.465749,15.694756 45.098392,7.1387948 31.188393,-0.13259253 14.113524,5.2847539 6.946912,19.24312 2.6038237,27.702126 2.9784052,38.204076 7.9207799,46.546967 c 1.8184423,3.069589 6.4626641,7.713811 9.5322551,9.532252 2.714143,1.607875 6.350813,3.009112 9.204121,3.546419 3.080677,0.580125 9.303026,0.401551 12.156246,-0.348868 z"
   id="path17"
   inkscape:connector-curvature="0" /></svg>