<?xml version="1.0" encoding="UTF-8" standalone="no"?>
<!-- Uploaded to SVGRepo https://www.svgrepo.com -->

<svg
   xmlns:dc="http://purl.org/dc/elements/1.1/"
   xmlns:cc="http://creativecommons.org/ns#"
   xmlns:rdf="http://www.w3.org/1999/02/22-rdf-syntax-ns#"
   xmlns:svg="http://www.w3.org/2000/svg"
   xmlns="http://www.w3.org/2000/svg"
   xmlns:sodipodi="http://sodipodi.sourceforge.net/DTD/sodipodi-0.dtd"
   xmlns:inkscape="http://www.inkscape.org/namespaces/inkscape"
   version="1.1"
   id="Ebene_1"
   x="0px"
   y="0px"
   width="64px"
   height="64px"
   viewBox="0 0 64 64"
   enable-background="new 0 0 64 64"
   xml:space="preserve"
   sodipodi:docname="squares-svgrepo-com2.svg"
   inkscape:version="0.92.3 (2405546, 2018-03-11)"><metadata
   id="metadata17"><rdf:RDF><cc:Work
       rdf:about=""><dc:format>image/svg+xml</dc:format><dc:type
         rdf:resource="http://purl.org/dc/dcmitype/StillImage" /><dc:title></dc:title></cc:Work></rdf:RDF></metadata><defs
   id="defs15" /><sodipodi:namedview
   pagecolor="#ffffff"
   bordercolor="#666666"
   borderopacity="1"
   objecttolerance="10"
   gridtolerance="10"
   guidetolerance="10"
   inkscape:pageopacity="0"
   inkscape:pageshadow="2"
   inkscape:window-width="3840"
   inkscape:window-height="1993"
   id="namedview13"
   showgrid="false"
   inkscape:zoom="20.85965"
   inkscape:cx="20.480864"
   inkscape:cy="25.018106"
   inkscape:window-x="0"
   inkscape:window-y="30"
   inkscape:window-maximized="1"
   inkscape:current-layer="g10" />
<g
   id="g10">
	<path
   d="M2,28h24c1.104,0,2-0.896,2-2V2c0-1.104-0.896-2-2-2H2C0.896,0,0,0.896,0,2v24C0,27.104,0.896,28,2,28z M4,4h20v20H4V4z"
   id="path2" />
	<path
   d="M64,2c0-1.104-0.896-2-2-2H38c-1.104,0-2,0.896-2,2v24c0,1.104,0.896,2,2,2h24c1.104,0,2-0.896,2-2V2z M60,24H40V4h20V24z"
   id="path4" />
	<path
   d="M2,64h25c1.104,0,2-0.896,2-2V37c0-1.104-0.896-2-2-2H2c-1.104,0-2,0.896-2,2v25C0,63.104,0.896,64,2,64z M4,39h21v21H4V39   z"
   id="path6" />
	<path
   d="M62,36H38c-1.104,0-2,0.896-2,2v24c0,1.104,0.896,2,2,2h24c1.104,0,2-0.896,2-2V38C64,36.896,63.104,36,62,36z M60,60H40   V40h20V60z"
   id="path8" />
<path
   style="fill:#ffffff;stroke-width:0.04793944"
   d="M 1.3805011,27.866082 C 0.96332375,27.723537 0.61379277,27.458187 0.37791753,27.104961 0.0091811,26.552774 0.03948596,27.7262 0.03948596,14.00065 0.03948596,0.2697465 0.00887598,1.4489834 0.37971016,0.89365484 0.62137454,0.5317596 1.006681,0.2472857 1.4279514,0.11973268 1.7372379,0.02608634 1.9031171,0.02501171 14.112205,0.03755891 l 12.370869,0.01271347 0.36528,0.1805344 c 0.585769,0.2895079 0.971984,0.79318832 1.091521,1.42350272 0.06665,0.3514325 0.06665,24.3412495 0,24.6926815 -0.119537,0.630314 -0.505752,1.133995 -1.091521,1.423503 l -0.365281,0.180534 -12.394838,0.01098 -12.3948383,0.01098 z M 24.009207,14.00065 V 3.957337 H 13.989864 3.9705203 V 13.96869 c 0,5.506245 0.014382,10.025736 0.03196,10.043314 0.017578,0.01758 4.5262822,0.03196 10.0193437,0.03196 h 9.987383 z"
   id="path19"
   inkscape:connector-curvature="0" /><path
   style="fill:#ffffff;stroke-width:0.04793944"
   d="M 1.4788315,63.900892 C 0.94203064,63.756183 0.48043138,63.364381 0.21749232,62.830275 L 0.06345568,62.517382 V 49.499808 36.482233 L 0.21749232,36.16934 C 0.38766426,35.823672 0.71316956,35.464358 1.0179482,35.285746 1.4992571,35.00368 0.61483066,35.020077 14.61595,35.033643 l 12.820928,0.01242 0.263666,0.107522 c 0.557344,0.227282 0.998143,0.6925 1.179249,1.244574 0.08865,0.270232 0.09115,0.629185 0.09115,13.101646 0,12.47246 -0.0025,12.831413 -0.09115,13.101645 -0.181106,0.552075 -0.621905,1.017292 -1.179249,1.244574 l -0.263666,0.107523 -12.847771,0.0091 C 3.3920944,63.970494 1.707608,63.962565 1.4788315,63.900892 Z M 25.015936,49.499808 V 39.00107 H 14.493228 3.9705203 V 49.499808 59.998546 H 14.493228 25.015936 Z"
   id="path21"
   inkscape:connector-curvature="0" /><path
   style="fill:#ffffff;stroke-width:0.04793944"
   d="M 37.412936,27.879696 C 36.862059,27.703295 36.451873,27.336564 36.197044,26.792614 L 36.065977,26.512845 V 14.00065 1.4884557 l 0.131067,-0.2797695 c 0.182659,-0.38989882 0.39393,-0.64013754 0.716439,-0.84858551 0.568778,-0.36761854 -0.572814,-0.33965837 13.225213,-0.32391551 l 12.3469,0.0140872 0.36528,0.1805344 c 0.577219,0.28528214 0.975071,0.80300482 1.091217,1.41999532 0.0672,0.3569603 0.0672,24.3427359 0,24.6996959 -0.115529,0.613714 -0.552663,1.170043 -1.136749,1.446711 l -0.324734,0.153819 -12.392346,0.0096 c -12.034969,0.0094 -12.400506,0.007 -12.675328,-0.08097 z M 60.011729,14.00065 V 3.957337 H 49.992385 39.973042 V 13.96869 c 0,5.506245 0.01438,10.025736 0.03196,10.043314 0.01758,0.01758 4.526282,0.03196 10.019343,0.03196 h 9.987384 z"
   id="path23"
   inkscape:connector-curvature="0" /><path
   style="fill:#ffffff;stroke-width:0.04793944"
   d="m 37.481353,63.900855 c -0.540905,-0.145739 -0.994896,-0.529356 -1.257326,-1.062427 l -0.15805,-0.321046 V 50.00418 37.490977 l 0.153077,-0.323148 c 0.195302,-0.412285 0.524008,-0.74134 0.950093,-0.951101 l 0.332995,-0.163934 H 49.993861 62.48558 l 0.365288,0.180534 c 0.588759,0.29098 0.975514,0.797897 1.092793,1.432314 0.03163,0.171108 0.04384,4.459783 0.0356,12.507122 l -0.01253,12.246724 -0.100418,0.244206 c -0.226655,0.551207 -0.635895,0.967733 -1.157892,1.17851 l -0.275752,0.111346 -12.344407,0.009 C 39.338106,63.97045 37.709954,63.962432 37.481351,63.90084 Z M 60.011729,49.979202 V 39.959859 H 49.992385 39.973042 v 10.019343 10.019344 h 10.019343 10.019344 z"
   id="path25"
   inkscape:connector-curvature="0" /></g>
</svg>