<?xml version="1.0" encoding="utf-8"?>
<!-- Uploaded to SVGRepo https://www.svgrepo.com -->
<!DOCTYPE svg PUBLIC "-//W3C//DTD SVG 1.1//EN" "http://www.w3.org/Graphics/SVG/1.1/DTD/svg11.dtd">
<svg version="1.1" id="Ebene_1" xmlns="http://www.w3.org/2000/svg" xmlns:xlink="http://www.w3.org/1999/xlink" x="0px" y="0px"
	 width="64px" height="64px" viewBox="0 0 64 64" enable-background="new 0 0 64 64" xml:space="preserve">
<g>
	<path d="M32,0c-8.547,0-16.583,3.33-22.626,9.374C3.329,15.417,0,23.453,0,32s3.329,16.583,9.373,22.626
		C15.417,60.671,23.452,64,32,64c8.548,0,16.583-3.33,22.627-9.374C60.671,48.583,64,40.547,64,32s-3.329-16.583-9.373-22.626
		C48.583,3.329,40.547,0,32,0z M51.798,51.798C46.51,57.087,39.479,60,32,60s-14.51-2.913-19.798-8.203C6.912,46.509,4,39.479,4,32
		s2.913-14.509,8.202-19.798C17.49,6.913,24.521,4,32,4s14.511,2.913,19.799,8.203C57.088,17.491,60,24.521,60,32
		S57.088,46.509,51.798,51.798z"/>
	<path d="M32,8c-6.411,0-12.438,2.497-16.97,7.03C10.497,19.563,8,25.59,8,32c0,1.104,0.896,2,2,2s2-0.896,2-2
		c0-5.341,2.081-10.363,5.859-14.142C21.636,14.081,26.658,12,32,12c5.342,0,10.365,2.081,14.142,5.858
		C49.92,21.637,52,26.659,52,32c0,1.104,0.896,2,2,2s2-0.896,2-2c0-6.409-2.496-12.436-7.029-16.97C44.438,10.497,38.411,8,32,8z"/>
	<path d="M32,31c-0.274,0-0.544,0.029-0.807,0.083l-5.698-6.411c-0.733-0.826-1.998-0.9-2.823-0.166
		c-0.826,0.734-0.9,1.998-0.166,2.823l5.71,6.424c-0.133,0.404-0.218,0.826-0.216,1.264c0.004,1.068,0.425,2.071,1.184,2.823
		C29.938,38.588,30.938,39,32,39c1.075,0,2.083-0.42,2.841-1.184c1.551-1.567,1.54-4.104-0.024-5.655C34.063,31.412,33.062,31,32,31
		z"/>
</g>
</svg>
