<?xml version="1.0" encoding="utf-8"?>
<!-- Uploaded to SVGRepo https://www.svgrepo.com -->
<!DOCTYPE svg PUBLIC "-//W3C//DTD SVG 1.1//EN" "http://www.w3.org/Graphics/SVG/1.1/DTD/svg11.dtd">
<svg version="1.1" id="Ebene_1" xmlns="http://www.w3.org/2000/svg" xmlns:xlink="http://www.w3.org/1999/xlink" x="0px" y="0px"
	 width="64px" height="64px" viewBox="0 0 64 64" enable-background="new 0 0 64 64" xml:space="preserve">
<g>
	<path d="M45.414,34.586c-0.78-0.781-2.048-0.781-2.828,0L41,36.172L24.828,20L35.414,9.414c0.781-0.781,0.781-2.047,0-2.828l-4-4
		c-0.775-0.776-2.038-0.775-2.821-0.007c-0.021,0.021-2.164,2.088-4.815,2.088c-1.536,0-2.963-0.681-4.364-2.081
		c-0.78-0.781-2.048-0.781-2.828,0l-16,16c-0.781,0.781-0.781,2.047,0,2.828l10,10C10.976,31.805,11.488,32,12,32
		s1.024-0.195,1.414-0.586L22,22.828L38.172,39l-1.586,1.586c-0.781,0.781-0.781,2.047,0,2.828l18,18C54.976,61.805,55.488,62,56,62
		s1.024-0.195,1.414-0.586l6-6c0.781-0.781,0.781-2.047,0-2.828L45.414,34.586z M12,27.171L4.829,20L18.104,6.725
		c1.755,1.29,3.657,1.941,5.674,1.941c2.552,0,4.7-1.082,6.062-1.998L31.171,8L12,27.171z M56,57.171L40.829,42L44,38.829L59.171,54
		L56,57.171z"/>
</g>
</svg>
