<?xml version="1.0" encoding="utf-8"?>
<!-- Uploaded to SVGRepo https://www.svgrepo.com -->
<!DOCTYPE svg PUBLIC "-//W3C//DTD SVG 1.1//EN" "http://www.w3.org/Graphics/SVG/1.1/DTD/svg11.dtd">
<svg version="1.1" id="Ebene_1" xmlns="http://www.w3.org/2000/svg" xmlns:xlink="http://www.w3.org/1999/xlink" x="0px" y="0px"
	 width="64px" height="64px" viewBox="0 0 64 64" enable-background="new 0 0 64 64" xml:space="preserve">
<g>
	<path d="M32-0.001c-8.547,0-16.583,3.329-22.626,9.374C3.329,15.417,0,23.453,0,32s3.329,16.583,9.373,22.627
		c6.044,6.045,14.08,9.374,22.627,9.374s16.583-3.329,22.627-9.374C60.671,48.583,64,40.547,64,32s-3.329-16.583-9.374-22.627
		C48.583,3.328,40.547-0.001,32-0.001z M51.799,51.799C46.51,57.088,39.479,60.001,32,60.001c-7.479,0-14.51-2.913-19.798-8.202
		C6.913,46.51,4,39.479,4,32s2.913-14.51,8.202-19.799C17.49,6.912,24.521,3.999,32,3.999c7.479,0,14.51,2.913,19.799,8.202
		C57.088,17.49,60,24.521,60,32S57.088,46.51,51.799,51.799z"/>
	<path d="M42.236,30.428l-14-11c-0.602-0.473-1.421-0.561-2.11-0.227C25.437,19.536,25,20.234,25,21v22
		c0,0.766,0.437,1.464,1.125,1.799C26.403,44.934,26.702,45,27,45c0.44,0,0.877-0.146,1.236-0.428l14-11
		C42.718,33.193,43,32.613,43,32S42.718,30.807,42.236,30.428z M29,38.885v-13.77L37.763,32L29,38.885z"/>
</g>
</svg>
