<?xml version="1.0" encoding="UTF-8"?>
<svg width="256px" height="80px" viewBox="0 0 256 80" version="1.1" xmlns="http://www.w3.org/2000/svg" xmlns:xlink="http://www.w3.org/1999/xlink">
    <!-- Generator: Sketch 53.2 (72643) - https://sketchapp.com -->
    <title>header / logo_256_48</title>
    <desc>Created with Sketch.</desc>
    <defs>
        <polygon id="path-1" points="0 0.642015584 28.9082703 0.642015584 28.9082703 19.726373 0 19.726373"></polygon>
    </defs>
    <style>
        #bg { fill: white; }
        path { fill: #000000; }
        @media (prefers-color-scheme: dark) {
            #bg { fill: none; }
            path { fill: #ffffff; }
        }

    </style>
    <rect id="bg" width="100%" height="100%"/>
    <g id="header-/-logo_256_48" stroke="none" stroke-width="1" fill="none" transform="translate(22 16)" fill-rule="evenodd">
        <g id="Group">
            <path d="M7.76539072,20.5714286 C7.76539072,20.5714286 9.42857143,20.5714286 9.42857143,22.2346093 L9.42857143,28.3368193 C9.42857143,28.3368193 9.42857143,30 7.76539072,30 L1.66318071,30 C1.66318071,30 0,30 0,28.3368193 L0,22.2346093 C0,22.2346093 0,20.5714286 1.66318071,20.5714286 L7.76539072,20.5714286 Z" id="Fill-7" fill-rule="nonzero"></path>
            <path d="M26.6225336,30 C26.6225336,30 28.2857143,30 28.2857143,31.6282225 L28.2857143,46.3717775 C28.2857143,46.3717775 28.2857143,48 26.6225336,48 L20.5203236,48 C20.5203236,48 18.8571429,48 18.8571429,46.3717775 L18.8571429,31.6282225 C18.8571429,31.6282225 18.8571429,30 20.5203236,30 L26.6225336,30 Z" id="Fill-9" fill-rule="nonzero"></path>
            <g id="Group-13">
                <g id="Fill-11-Clipped">
                    <mask id="mask-2" fill="white">
                        <use xlink:href="#path-1"></use>
                    </mask>
                    <g id="path-1"></g>
                    <path d="M28.9082703,8.50166649 L28.9082703,2.32462753 C28.9082703,0.641510649 27.2085837,0.641510649 27.2085837,0.641510649 L20.9724334,0.641510649 L1.69968664,0.641510649 C0,0.641510649 0,2.32462753 0,2.32462753 L0,8.50166649 C0,10.1847834 1.69968664,10.1847834 1.69968664,10.1847834 L19.2727468,10.1847834 L19.2727468,18.0432561 C19.2727468,19.726373 20.9724334,19.726373 20.9724334,19.726373 L27.2085837,19.726373 C28.9082703,19.726373 28.9082703,18.0432561 28.9082703,18.0432561 L28.9082703,8.50166649 Z" id="Fill-11" fill-rule="nonzero" mask="url(#mask-2)"></path>
                </g>
            </g>
            <path d="M56.8614579,14.5714286 L55.3461086,14.5714286 C52.6959385,14.5714286 51.4190537,15.9417622 51.4190537,18.4965643 L51.4190537,20.1068331 L49.7142857,20.3433888 L49.7142857,22.5399779 L51.4190537,22.5399779 L51.4190537,30.8903958 L54.2806286,30.8903958 L54.2806286,22.5399779 L57.0745539,22.5399779 L57.0745539,20.1068331 L54.2806286,20.1068331 L54.2806286,18.5202199 C54.2806286,17.5739969 54.5647566,17.0045734 55.5118499,17.0045734 L56.8614579,17.0045734 L56.8614579,14.5714286 Z M63.8479625,28.7174623 C62.2835673,28.7174623 61.4785379,27.8405164 61.4075059,26.4194922 L67.9187726,26.4194922 C68.0371593,25.971726 68.1081913,25.1437808 68.1081913,24.5540811 C68.1081913,22.2087999 66.8549838,19.8702773 63.5401572,19.8702773 C60.2016532,19.8702773 58.5222537,22.4453556 58.5222537,25.4986145 C58.5222537,28.788429 60.1069438,31.1506072 63.8479625,31.1506072 C65.5780991,31.1506072 67.0207252,30.418974 67.8477406,29.5910289 L66.4998238,27.7222385 C65.6964857,28.3862843 64.7257151,28.7174623 63.8479625,28.7174623 L63.8479625,28.7174623 Z M61.4311833,24.3884921 C61.5022153,23.1567126 62.1178259,22.1614887 63.5401572,22.1614887 C64.5582825,22.1614887 65.4597124,22.7545678 65.4597124,24.0336585 C65.4597124,24.1046252 65.4360351,24.2465587 65.4123577,24.3884921 L61.4311833,24.3884921 Z M73.3882366,21.8083448 L73.3882366,20.1068331 L70.6450484,20.1068331 L70.6450484,30.8903958 L73.5066233,30.8903958 L73.5066233,24.1012459 C73.9091379,23.3442675 74.6431353,22.8238448 75.5902286,22.8238448 C76.1111299,22.8238448 76.8214499,22.9184671 77.3186739,23.036745 L77.5317699,20.0122108 C77.1766099,19.9175885 76.7504179,19.8702773 76.3005486,19.8702773 C74.7851993,19.8702773 73.9564926,20.8401559 73.4119139,21.8100345 L73.3882366,21.8083448 Z M82.3145913,21.8083448 L82.3145913,20.1068331 L79.5714031,20.1068331 L79.5714031,30.8903958 L82.4329779,30.8903958 L82.4329779,24.1012459 C82.8354926,23.3442675 83.5694899,22.8238448 84.5165833,22.8238448 C85.0374846,22.8238448 85.7478046,22.9184671 86.2450286,23.036745 L86.4581246,20.0122108 C86.1029646,19.9175885 85.6767726,19.8702773 85.2269033,19.8702773 C83.7115539,19.8702773 82.8828473,20.8401559 82.3382686,21.8100345 L82.3145913,21.8083448 Z M92.9710825,19.8702773 C89.4194825,19.8702773 87.8347924,22.2324554 87.8347924,25.52227 C87.8347924,28.7411179 89.4905145,31.1506072 92.8763732,31.1506072 C96.4279732,31.1506072 98.0363406,28.788429 98.0363406,25.4749589 C98.0363406,22.2324554 96.3806185,19.8702773 92.9710825,19.8702773 L92.9710825,19.8702773 Z M92.9237279,28.5755289 C91.454042,28.5755289 90.743722,27.5583392 90.743722,25.4749589 C90.743722,23.4878906 91.4303646,22.4453556 92.9000505,22.4453556 C94.4153999,22.4453556 95.1037338,23.4878906 95.1037338,25.52227 C95.1037338,27.4873724 94.4153999,28.5755289 92.9237279,28.5755289 L92.9237279,28.5755289 Z M110.277522,20.1068331 L107.414256,20.1068331 L107.414256,27.7002726 C106.988064,28.1024174 106.13568,28.5045621 105.306973,28.5045621 C103.860965,28.5045621 103.363741,27.8185505 103.363741,26.5174939 L103.363741,20.1068331 L100.476797,20.1068331 L100.476797,26.8486719 C100.476797,29.6383401 101.731696,31.1269516 104.16877,31.1269516 C105.898907,31.1269516 106.940709,30.4662852 107.508965,29.6619956 L107.508965,30.8903958 L110.277522,30.8903958 L110.277522,20.1068331 Z M121.453223,21.4535112 C120.742903,20.6728772 119.513373,19.8702773 117.382413,19.8702773 C114.114941,19.8702773 112.954752,21.7829995 112.954752,23.3459571 C112.954752,24.9072251 113.901845,26.0190371 115.794341,26.4921486 L117.666541,26.9416045 C118.400539,27.1088832 118.755699,27.4873724 118.755699,27.9604839 C118.755699,28.6701512 118.069056,29.0249848 117.096594,29.0249848 C115.746986,29.0249848 114.82357,28.291662 114.209651,27.6293059 L112.575915,29.3325073 C113.262557,30.1824183 114.657829,31.1506072 116.978207,31.1506072 C120.50613,31.1506072 121.666319,29.403474 121.666319,27.7002726 C121.666319,26.137315 120.742903,24.9781918 118.589957,24.5050803 L116.788789,24.07928 C116.102146,23.9373465 115.794341,23.5588573 115.794341,23.0620903 C115.794341,22.4926668 116.267887,22.0195553 117.264027,22.0195553 C118.329507,22.0195553 119.229245,22.4926668 119.868533,23.133057 L121.453223,21.4535112 Z M137.293359,21.4535112 C136.583039,20.6728772 135.353509,19.8702773 133.220858,19.8702773 C129.953386,19.8702773 128.794888,21.7829995 128.794888,23.3459571 C128.794888,24.9072251 129.741981,26.0190371 131.632785,26.4921486 L133.506677,26.9416045 C134.240675,27.1088832 134.595835,27.4873724 134.595835,27.9604839 C134.595835,28.6701512 133.909192,29.0249848 132.93673,29.0249848 C131.585431,29.0249848 130.663706,28.291662 130.048095,27.6293059 L128.416051,29.3325073 C129.102693,30.1824183 130.497965,31.1506072 132.818343,31.1506072 C136.346266,31.1506072 137.504764,29.403474 137.504764,27.7002726 C137.504764,26.137315 136.583039,24.9781918 134.430093,24.5050803 L132.628925,24.07928 C131.942282,23.9373465 131.632785,23.5588573 131.632785,23.0620903 C131.632785,22.4926668 132.108023,22.0195553 133.102471,22.0195553 C134.169643,22.0195553 135.069381,22.4926668 135.706978,23.133057 L137.293359,21.4535112 Z M141.839407,20.1068331 L138.61929,20.1068331 L143.046951,30.418974 L140.726573,36 L143.638885,36 L149.960733,20.1068331 L146.882679,20.1068331 L144.467591,27.1308491 L141.839407,20.1068331 Z M159.761457,21.4535112 C159.052829,20.6728772 157.823299,19.8702773 155.690647,19.8702773 C152.423175,19.8702773 151.264677,21.7829995 151.264677,23.3459571 C151.264677,24.9072251 152.211771,26.0190371 154.102575,26.4921486 L155.974775,26.9416045 C156.710464,27.1088832 157.065624,27.4873724 157.065624,27.9604839 C157.065624,28.6701512 156.378981,29.0249848 155.406519,29.0249848 C154.05522,29.0249848 153.133495,28.291662 152.517885,27.6293059 L150.88584,29.3325073 C151.572483,30.1824183 152.967754,31.1506072 155.288133,31.1506072 C158.816055,31.1506072 159.974553,29.403474 159.974553,27.7002726 C159.974553,26.137315 159.052829,24.9781918 156.899883,24.5050803 L155.098714,24.07928 C154.412071,23.9373465 154.102575,23.5588573 154.102575,23.0620903 C154.102575,22.4926668 154.577813,22.0195553 155.572261,22.0195553 C156.639432,22.0195553 157.539171,22.4926668 158.176767,23.133057 L159.761457,21.4535112 Z M166.345447,22.5163223 L168.758844,22.5163223 L168.758844,20.1068331 L166.345447,20.1068331 L166.345447,17.0316084 L163.482181,17.4810643 L163.482181,20.1068331 L161.516963,20.3433888 L161.516963,22.5163223 L163.482181,22.5163223 L163.482181,27.7475838 C163.482181,29.7093068 164.332874,31.1506072 166.558543,31.1506072 C167.363573,31.1506072 168.308975,31.0086737 168.853553,30.7957735 L168.806199,28.3153175 C168.403684,28.4335954 167.908151,28.5045621 167.529314,28.5045621 C166.771639,28.5045621 166.345447,28.1497285 166.345447,27.345439 L166.345447,22.5163223 Z M176.076831,28.7174623 C174.512436,28.7174623 173.707407,27.8405164 173.636375,26.4194922 L180.147641,26.4194922 C180.266028,25.971726 180.33706,25.1437808 180.33706,24.5540811 C180.33706,22.2087999 179.083853,19.8702773 175.769026,19.8702773 C172.430522,19.8702773 170.751123,22.4453556 170.751123,25.4986145 C170.751123,28.788429 172.335813,31.1506072 176.076831,31.1506072 C177.806968,31.1506072 179.249594,30.418974 180.076609,29.5910289 L178.728693,27.7222385 C177.925355,28.3862843 176.952893,28.7174623 176.076831,28.7174623 L176.076831,28.7174623 Z M173.660052,24.3884921 C173.731084,23.1567126 174.346695,22.1614887 175.769026,22.1614887 C176.787151,22.1614887 177.688581,22.7545678 177.688581,24.0336585 C177.688581,24.1046252 177.664904,24.2465587 177.641227,24.3884921 L173.660052,24.3884921 Z M182.873917,30.8903958 L185.735492,30.8903958 L185.735492,23.2969563 C186.280071,22.871156 186.943036,22.4926668 187.844466,22.4926668 C188.862591,22.4926668 189.478202,22.9421227 189.835053,23.5335121 L189.835053,30.8903958 L192.696628,30.8903958 L192.696628,23.2969563 C193.146498,22.871156 193.904172,22.4926668 194.876634,22.4926668 C196.202565,22.4926668 196.677803,23.1077117 196.677803,24.148557 L196.677803,30.8903958 L199.563055,30.8903958 L199.563055,23.9120013 C199.563055,21.2879221 198.428234,19.8702773 195.705341,19.8702773 C193.809463,19.8702773 192.554564,20.6965328 191.962631,21.4535112 C191.301357,20.5326334 190.401618,19.8702773 188.673173,19.8702773 C187.156132,19.8702773 186.232716,20.6272557 185.640783,21.3352333 L185.640783,20.1068331 L182.873917,20.1068331 L182.873917,30.8903958 Z M210.644047,21.4535112 C209.933727,20.6728772 208.704197,19.8702773 206.573237,19.8702773 C203.305765,19.8702773 202.145575,21.7829995 202.145575,23.3459571 C202.145575,24.9072251 203.092669,26.0190371 204.985164,26.4921486 L206.857365,26.9416045 C207.591362,27.1088832 207.946522,27.4873724 207.946522,27.9604839 C207.946522,28.6701512 207.259879,29.0249848 206.289109,29.0249848 C204.93781,29.0249848 204.014394,28.291662 203.400474,27.6293059 L201.766738,29.3325073 C202.453381,30.1824183 203.848652,31.1506072 206.169031,31.1506072 C209.696954,31.1506072 210.857143,29.403474 210.857143,27.7002726 C210.857143,26.137315 209.933727,24.9781918 207.780781,24.5050803 L205.979612,24.07928 C205.29297,23.9373465 204.985164,23.5588573 204.985164,23.0620903 C204.985164,22.4926668 205.458711,22.0195553 206.45485,22.0195553 C207.52033,22.0195553 208.420069,22.4926668 209.059357,23.133057 L210.644047,21.4535112 Z" id="Fill-14" fill-rule="nonzero"></path>
        </g>
    </g>
</svg>
