<svg width="500" height="500" viewBox="0 0 500 500" fill="none" xmlns="http://www.w3.org/2000/svg">
<g filter="url(#filter0_i_1_2)">
<g clip-path="url(#clip0_1_2)">
<rect width="500" height="500" rx="40" fill="#222222"/>
<g filter="url(#filter1_f_1_2)">
<path d="M378 10H41L50.4781 18L378 10Z" fill="white" fill-opacity="0.75"/>
</g>
<g filter="url(#filter2_f_1_2)">
<path d="M459 21.2931C465.333 20.2931 478.8 21.2931 482 33.2931C485.2 45.2931 485.333 56.6265 485 60.7931V223.793" stroke="url(#paint0_linear_1_2)" stroke-width="2"/>
</g>
<g filter="url(#filter3_f_1_2)">
<path d="M38.1246 29.2931C31.7912 28.2931 18.3246 29.2931 15.1246 41.2931C11.9246 53.2931 11.7912 64.6265 12.1246 68.7931V448.5" stroke="white" stroke-width="2"/>
</g>
<rect y="286" width="500" height="141" fill="#7565DC" fill-opacity="0.2"/>
<path d="M95.319 298.747C98.1634 298.747 100.483 299.622 102.277 301.372C104.071 303.123 104.968 305.311 104.968 307.936C104.968 310.606 104.071 312.838 102.277 314.632C100.483 316.382 98.1634 317.257 95.319 317.257C92.5183 317.257 90.2209 316.382 88.4267 314.632C86.6325 312.838 85.7354 310.606 85.7354 307.936C85.7354 305.311 86.6325 303.123 88.4267 301.372C90.2209 299.622 92.5183 298.747 95.319 298.747ZM105.559 391.235H124.398V402H70.1128V391.235H90.8554V343.448H70.7692V332.683H105.559V391.235ZM174.2 330.845C180.852 330.845 186.519 332.333 191.201 335.309C195.884 338.284 199.428 342.507 201.835 347.977C204.242 353.404 205.445 359.815 205.445 367.21C205.445 374.562 204.22 380.995 201.769 386.509C199.319 391.979 195.752 396.224 191.07 399.243C186.388 402.263 180.742 403.772 174.135 403.772C167.483 403.772 161.816 402.306 157.134 399.374C152.451 396.442 148.885 392.241 146.434 386.771C144.027 381.301 142.824 374.825 142.824 367.342C142.824 360.121 144.049 353.754 146.5 348.24C148.95 342.726 152.517 338.459 157.199 335.44C161.925 332.377 167.592 330.845 174.2 330.845ZM174.2 342.267C168.861 342.267 164.857 344.323 162.188 348.437C159.562 352.507 158.249 358.808 158.249 367.342C158.249 375.875 159.562 382.198 162.188 386.312C164.814 390.382 168.796 392.416 174.135 392.416C179.473 392.416 183.456 390.382 186.081 386.312C188.707 382.198 190.02 375.831 190.02 367.21C190.02 358.721 188.707 352.441 186.081 348.371C183.456 344.302 179.495 342.267 174.2 342.267ZM241.004 345.286C241.004 343.186 241.529 341.238 242.579 339.444C243.629 337.606 245.051 336.162 246.846 335.112C248.64 334.062 250.631 333.536 252.819 333.536C255.007 333.536 256.998 334.062 258.792 335.112C260.586 336.162 262.009 337.606 263.059 339.444C264.109 341.238 264.634 343.186 264.634 345.286C264.634 347.43 264.109 349.422 263.059 351.259C262.009 353.054 260.586 354.498 258.792 355.592C256.998 356.642 255.007 357.167 252.819 357.167C250.631 357.167 248.64 356.642 246.846 355.592C245.051 354.498 243.629 353.054 242.579 351.259C241.529 349.422 241.004 347.43 241.004 345.286ZM241.004 391.891C241.004 389.791 241.529 387.843 242.579 386.049C243.629 384.255 245.051 382.833 246.846 381.783C248.684 380.732 250.675 380.207 252.819 380.207C255.007 380.207 256.998 380.732 258.792 381.783C260.586 382.833 262.009 384.255 263.059 386.049C264.109 387.843 264.634 389.791 264.634 391.891C264.634 394.036 264.109 396.027 263.059 397.865C262.052 399.659 260.63 401.081 258.792 402.131C256.998 403.225 255.007 403.772 252.819 403.772C250.631 403.772 248.64 403.225 246.846 402.131C245.051 401.081 243.629 399.659 242.579 397.865C241.529 396.027 241.004 394.036 241.004 391.891Z" fill="#7565DC"/>
<rect x="302" y="263" width="19" height="180" fill="#75CE8E"/>
<path d="M97 59C97 47.9543 105.954 39 117 39H321V263H117C105.954 263 97 254.046 97 243V59Z" fill="#75CE8E"/>
<path d="M321 39H525C536.046 39 545 47.9543 545 59V243C545 254.046 536.046 263 525 263H321V39Z" fill="#34934E"/>
<path d="M291.844 148.923L284.792 144.556C284.734 143.87 284.668 143.185 284.594 142.5L290.654 136.85C290.952 136.566 291.175 136.211 291.299 135.819C291.424 135.426 291.447 135.008 291.366 134.603C291.286 134.199 291.104 133.822 290.838 133.507C290.572 133.192 290.231 132.95 289.846 132.803L282.099 129.904C281.908 129.234 281.705 128.567 281.49 127.904L286.323 121.191C286.566 120.855 286.718 120.463 286.766 120.052C286.814 119.641 286.756 119.225 286.598 118.843C286.44 118.46 286.186 118.125 285.861 117.869C285.537 117.612 285.152 117.443 284.743 117.377L276.579 116.051C276.261 115.434 275.932 114.822 275.594 114.215L279.024 106.68C279.197 106.304 279.27 105.89 279.237 105.478C279.203 105.066 279.064 104.669 278.832 104.326C278.602 103.983 278.288 103.704 277.92 103.515C277.552 103.327 277.142 103.235 276.728 103.248L268.437 103.539C268.011 103 267.574 102.471 267.125 101.951L269.032 93.8775C269.126 93.4748 269.116 93.0549 269.002 92.6572C268.889 92.2596 268.676 91.8974 268.384 91.6049C268.092 91.3125 267.73 91.0994 267.332 90.9859C266.935 90.8723 266.515 90.8621 266.113 90.9561L258.04 92.8635C257.513 92.4208 256.982 91.9836 256.445 91.552L256.736 83.2577C256.756 82.8427 256.668 82.4297 256.481 82.0587C256.294 81.6876 256.015 81.3712 255.669 81.1401C255.324 80.909 254.925 80.771 254.511 80.7397C254.097 80.7083 253.682 80.7845 253.306 80.961L245.774 84.3991C245.163 84.0658 244.554 83.7325 243.938 83.4139L242.605 75.2401C242.536 74.8335 242.365 74.4512 242.108 74.1288C241.851 73.8064 241.516 73.5545 241.135 73.3966C240.754 73.2387 240.34 73.18 239.93 73.226C239.52 73.272 239.129 73.4212 238.793 73.6596L232.074 78.4947C231.412 78.2823 230.746 78.0816 230.076 77.8925L227.178 70.1438C227.031 69.7586 226.789 69.417 226.474 69.1509C226.159 68.8849 225.782 68.703 225.378 68.6223C224.973 68.5415 224.555 68.5646 224.162 68.6894C223.77 68.8142 223.415 69.0365 223.131 69.3357L217.483 75.4039C216.799 75.3268 216.114 75.2605 215.428 75.2051L211.062 68.1509C210.845 67.7991 210.542 67.5086 210.181 67.3072C209.82 67.1057 209.413 67 209 67C208.587 67 208.18 67.1057 207.819 67.3072C207.458 67.5086 207.155 67.7991 206.938 68.1509L202.573 75.2044C201.887 75.2633 201.202 75.3296 200.517 75.4032L194.862 69.335C194.58 69.0322 194.226 68.8065 193.832 68.6795C193.438 68.5524 193.019 68.5283 192.613 68.6092C192.208 68.6902 191.83 68.8737 191.515 69.1422C191.2 69.4107 190.96 69.7552 190.816 70.1431L187.917 77.8911C187.244 78.083 186.585 78.2882 185.919 78.4933L179.208 73.6596C178.871 73.4212 178.48 73.2721 178.07 73.2261C177.66 73.1801 177.245 73.2389 176.864 73.3968C176.484 73.5548 176.149 73.8068 175.892 74.1292C175.635 74.4517 175.464 74.8341 175.395 75.2408L174.062 83.4139C173.445 83.7325 172.834 84.061 172.227 84.3991L164.693 80.961C164.317 80.7887 163.903 80.7157 163.491 80.749C163.078 80.7822 162.681 80.9206 162.337 81.1508C161.993 81.3811 161.714 81.6956 161.526 82.0644C161.338 82.4333 161.248 82.8441 161.263 83.2577L161.555 91.552C161.015 91.9793 160.483 92.4166 159.96 92.8635L151.888 90.9554C151.486 90.8613 151.066 90.8714 150.668 90.9849C150.271 91.0983 149.909 91.3113 149.616 91.6037C149.324 91.8961 149.111 92.2582 148.998 92.6558C148.884 93.0534 148.874 93.4734 148.968 93.8761L150.868 101.95C150.428 102.476 149.989 103.007 149.563 103.539L141.272 103.248C140.858 103.232 140.448 103.323 140.079 103.511C139.71 103.699 139.396 103.978 139.166 104.322C138.935 104.666 138.797 105.063 138.764 105.476C138.731 105.888 138.804 106.303 138.976 106.679L142.413 114.214C142.075 114.821 141.746 115.433 141.428 116.05L133.264 117.377C132.858 117.446 132.476 117.617 132.153 117.874C131.831 118.131 131.579 118.466 131.421 118.847C131.264 119.228 131.205 119.642 131.251 120.052C131.297 120.462 131.446 120.853 131.684 121.19L136.517 127.903C136.306 128.567 136.103 129.234 135.908 129.902L128.162 132.801C127.777 132.948 127.435 133.191 127.169 133.506C126.903 133.82 126.721 134.198 126.64 134.602C126.56 135.006 126.583 135.425 126.707 135.818C126.832 136.211 127.054 136.566 127.353 136.849L133.413 142.5C133.336 143.184 133.27 143.869 133.215 144.555L126.163 148.922C125.808 149.137 125.515 149.439 125.311 149.801C125.107 150.162 125 150.57 125 150.985C125 151.4 125.107 151.808 125.311 152.169C125.515 152.531 125.808 152.833 126.163 153.048L133.215 157.414C133.271 158.102 133.342 158.79 133.413 159.47L127.353 165.128C127.051 165.409 126.825 165.764 126.698 166.158C126.571 166.552 126.547 166.971 126.628 167.377C126.709 167.783 126.893 168.161 127.161 168.476C127.43 168.79 127.774 169.031 128.162 169.175L135.908 172.075C136.099 172.748 136.304 173.415 136.517 174.074L131.684 180.787C131.439 181.122 131.285 181.515 131.236 181.927C131.187 182.339 131.246 182.757 131.405 183.141C131.565 183.524 131.82 183.86 132.147 184.115C132.474 184.371 132.861 184.538 133.271 184.601L141.435 185.927C141.754 186.543 142.08 187.153 142.42 187.763L138.983 195.298C138.811 195.675 138.738 196.089 138.771 196.502C138.805 196.914 138.943 197.312 139.173 197.656C139.403 198 139.718 198.279 140.087 198.467C140.455 198.655 140.866 198.745 141.279 198.73L149.563 198.439C149.996 198.977 150.428 199.509 150.875 200.033L148.975 208.115C148.881 208.517 148.891 208.937 149.004 209.335C149.117 209.732 149.33 210.094 149.623 210.386C149.915 210.678 150.278 210.891 150.676 211.003C151.073 211.115 151.493 211.124 151.895 211.028L159.966 209.129C160.491 209.575 161.023 210.008 161.562 210.433L161.271 218.728C161.253 219.142 161.341 219.554 161.529 219.924C161.716 220.294 161.996 220.61 162.341 220.84C162.686 221.07 163.084 221.207 163.498 221.239C163.911 221.27 164.326 221.193 164.701 221.017L172.234 217.586C172.843 217.926 173.453 218.252 174.069 218.571L175.402 226.738C175.47 227.145 175.64 227.528 175.897 227.851C176.153 228.175 176.488 228.428 176.869 228.586C177.25 228.745 177.665 228.804 178.075 228.759C178.486 228.713 178.878 228.564 179.215 228.326L185.926 223.491C186.588 223.705 187.255 223.908 187.924 224.1L190.822 231.849C190.964 232.239 191.204 232.585 191.519 232.855C191.834 233.124 192.212 233.309 192.619 233.39C193.025 233.471 193.445 233.446 193.84 233.318C194.234 233.19 194.588 232.962 194.869 232.657L200.524 226.596C201.205 226.674 201.892 226.738 202.579 226.802L206.945 233.855C207.163 234.206 207.467 234.494 207.828 234.695C208.189 234.895 208.594 235 209.007 235C209.42 235 209.825 234.895 210.186 234.695C210.547 234.494 210.851 234.206 211.069 233.855L215.435 226.802C216.122 226.738 216.809 226.674 217.49 226.596L223.138 232.657C223.422 232.956 223.777 233.178 224.169 233.303C224.562 233.428 224.98 233.451 225.384 233.37C225.788 233.289 226.165 233.108 226.48 232.842C226.795 232.576 227.037 232.234 227.184 231.849L230.083 224.1C230.753 223.909 231.419 223.706 232.081 223.491L238.793 228.326C239.128 228.57 239.52 228.724 239.933 228.773C240.345 228.822 240.762 228.764 241.146 228.604C241.529 228.445 241.864 228.189 242.12 227.862C242.376 227.535 242.543 227.148 242.605 226.738L243.938 218.571C244.554 218.252 245.163 217.919 245.773 217.586L253.307 221.017C253.682 221.187 254.095 221.259 254.506 221.225C254.918 221.191 255.313 221.053 255.656 220.824C256 220.595 256.279 220.282 256.468 219.916C256.657 219.549 256.749 219.14 256.737 218.728L256.446 210.433C256.984 210.01 257.514 209.575 258.033 209.129L266.105 211.028C266.507 211.122 266.926 211.112 267.322 210.999C267.719 210.886 268.08 210.673 268.372 210.382C268.664 210.091 268.878 209.73 268.992 209.333C269.106 208.937 269.117 208.518 269.025 208.116L267.125 200.033C267.565 199.509 268.004 198.977 268.43 198.438L276.721 198.729C277.136 198.749 277.549 198.661 277.92 198.474C278.291 198.287 278.607 198.007 278.838 197.662C279.069 197.317 279.207 196.918 279.239 196.503C279.27 196.089 279.194 195.674 279.017 195.298L275.587 187.763C275.92 187.153 276.253 186.543 276.572 185.927L284.736 184.601C285.142 184.532 285.524 184.361 285.847 184.104C286.169 183.846 286.421 183.512 286.579 183.131C286.737 182.75 286.796 182.335 286.75 181.925C286.704 181.515 286.555 181.123 286.316 180.787L281.483 174.074L282.092 172.075L289.839 169.176C290.227 169.032 290.571 168.791 290.84 168.476C291.108 168.161 291.292 167.783 291.373 167.377C291.454 166.971 291.429 166.552 291.302 166.158C291.175 165.764 290.949 165.409 290.647 165.128L284.587 159.47C284.658 158.79 284.729 158.102 284.785 157.414L291.837 153.048C292.192 152.833 292.485 152.531 292.689 152.169C292.893 151.808 293 151.4 293 150.985C293 150.57 292.893 150.162 292.689 149.801C292.485 149.439 292.192 149.137 291.837 148.922L291.844 148.923ZM244.654 207.428C243.364 207.144 242.239 206.362 241.525 205.251C240.81 204.141 240.564 202.792 240.84 201.501C241.116 200.209 241.892 199.079 242.998 198.358C244.105 197.637 245.451 197.384 246.744 197.653C247.395 197.781 248.013 198.038 248.564 198.408C249.114 198.778 249.585 199.254 249.95 199.809C250.315 200.363 250.565 200.984 250.688 201.636C250.81 202.288 250.801 202.958 250.662 203.607C250.523 204.256 250.256 204.87 249.877 205.415C249.498 205.959 249.014 206.423 248.454 206.778C247.894 207.134 247.269 207.374 246.615 207.486C245.962 207.597 245.292 207.578 244.646 207.428H244.654ZM242.258 191.223C241.674 191.097 241.07 191.088 240.482 191.196C239.894 191.304 239.333 191.527 238.831 191.852C238.33 192.177 237.897 192.599 237.558 193.091C237.22 193.584 236.982 194.139 236.858 194.724L234.357 206.408C226.632 209.916 218.057 211.866 209.021 211.866C200.086 211.879 191.257 209.933 183.155 206.166L180.653 194.483C180.529 193.899 180.291 193.344 179.952 192.851C179.614 192.359 179.181 191.938 178.679 191.614C178.177 191.289 177.616 191.067 177.028 190.959C176.44 190.852 175.837 190.862 175.253 190.989L164.942 193.201C163.026 191.227 161.246 189.126 159.613 186.912H209.787C210.354 186.912 210.736 186.814 210.736 186.296V168.538C210.736 168.02 210.361 167.921 209.787 167.921H195.11V156.664H210.985C212.43 156.664 218.73 157.075 220.743 165.128C221.373 167.602 222.755 175.663 223.705 178.243C224.647 181.135 228.488 186.912 232.585 186.912H257.586C257.891 186.908 258.194 186.878 258.494 186.821C256.76 189.177 254.861 191.406 252.81 193.491L242.258 191.223ZM172.858 207.187C172.212 207.337 171.542 207.357 170.888 207.245C170.235 207.134 169.609 206.893 169.05 206.537C168.49 206.182 168.006 205.718 167.627 205.174C167.248 204.629 166.981 204.015 166.842 203.366C166.703 202.717 166.694 202.047 166.816 201.395C166.938 200.743 167.189 200.122 167.554 199.568C167.918 199.014 168.39 198.538 168.94 198.167C169.491 197.797 170.109 197.54 170.76 197.412C172.046 197.157 173.381 197.419 174.477 198.14C175.572 198.862 176.34 199.985 176.615 201.267C176.891 202.55 176.651 203.889 175.948 204.997C175.245 206.104 174.135 206.891 172.858 207.187ZM153.823 129.974C154.112 130.577 154.277 131.231 154.308 131.899C154.339 132.567 154.236 133.234 154.005 133.861C153.774 134.488 153.42 135.063 152.963 135.55C152.506 136.038 151.956 136.429 151.345 136.701C150.734 136.972 150.076 137.118 149.407 137.13C148.739 137.142 148.076 137.02 147.456 136.771C146.835 136.522 146.272 136.151 145.797 135.68C145.323 135.209 144.948 134.647 144.695 134.029C144.203 132.826 144.199 131.479 144.684 130.273C145.169 129.067 146.105 128.098 147.292 127.57C148.479 127.043 149.825 126.999 151.045 127.448C152.264 127.897 153.261 128.803 153.823 129.974V129.974ZM147.976 143.847L158.72 139.069C159.266 138.826 159.759 138.478 160.171 138.045C160.583 137.611 160.906 137.101 161.12 136.542C161.335 135.984 161.437 135.389 161.422 134.791C161.406 134.193 161.273 133.604 161.03 133.058L158.819 128.053H167.522V167.284H149.967C147.803 159.67 147.129 151.709 147.983 143.84L147.976 143.847ZM195.117 140.04V128.478H215.838C216.909 128.478 223.393 129.719 223.393 134.568C223.393 138.594 218.418 140.04 214.329 140.04H195.117ZM270.42 150.447C270.42 151.979 270.364 153.502 270.25 155.006H263.95C263.32 155.006 263.065 155.416 263.065 156.04V158.932C263.065 165.745 259.224 167.227 255.857 167.602C252.654 167.964 249.104 166.263 248.665 164.299C246.772 153.665 243.626 151.39 238.651 147.47C244.823 143.549 251.244 137.765 251.244 130.023C251.244 121.665 245.511 116.398 241.606 113.811C236.128 110.196 230.062 109.473 228.425 109.473H163.277C172.28 99.4021 184.354 92.5844 197.626 90.0773L205.308 98.137C205.72 98.5701 206.213 98.9177 206.759 99.1597C207.305 99.4018 207.894 99.5335 208.491 99.5473C209.088 99.5612 209.682 99.4569 210.239 99.2405C210.796 99.024 211.304 98.6997 211.736 98.2861L220.325 90.0633C229.083 91.7063 237.378 95.2355 244.636 100.406C251.894 105.577 257.941 112.265 262.356 120.007L256.474 133.298C255.987 134.402 255.956 135.655 256.389 136.781C256.822 137.908 257.683 138.817 258.784 139.31L270.109 144.343C270.307 146.356 270.406 148.384 270.406 150.447H270.42ZM205.315 83.2297C206.273 82.316 207.554 81.8203 208.877 81.8515C209.532 81.867 210.178 82.0114 210.777 82.2764C211.376 82.5415 211.918 82.9221 212.37 83.3964C212.822 83.8707 213.177 84.4295 213.413 85.0408C213.649 85.6521 213.763 86.3041 213.748 86.9594C213.732 87.6147 213.588 88.2605 213.323 88.86C213.058 89.4595 212.677 90.0009 212.203 90.4533C211.233 91.2914 209.977 91.7242 208.697 91.6621C207.416 91.6 206.208 91.0478 205.323 90.1198C204.439 89.1917 203.944 87.9589 203.943 86.6764C203.941 85.3939 204.432 84.1599 205.315 83.2297ZM263.688 130.215C263.953 129.616 264.333 129.074 264.806 128.622C265.28 128.17 265.839 127.816 266.45 127.58C267.061 127.344 267.712 127.231 268.367 127.248C269.022 127.265 269.667 127.41 270.265 127.677C271.169 128.076 271.935 128.735 272.465 129.57C272.995 130.404 273.266 131.377 273.243 132.366C273.22 133.355 272.904 134.314 272.335 135.123C271.767 135.932 270.971 136.554 270.049 136.911C269.127 137.267 268.12 137.342 267.155 137.126C266.191 136.909 265.312 136.412 264.63 135.696C263.949 134.98 263.494 134.077 263.326 133.103C263.157 132.129 263.281 131.126 263.681 130.222L263.688 130.215Z" fill="black"/>
<rect x="343" y="63" width="100" height="32" fill="#74CE8C"/>
<rect x="343" y="107" width="202" height="32" fill="#74CE8C"/>
<rect x="343" y="151" width="57" height="32" fill="#74CE8C"/>
<rect x="343" y="195" width="100" height="32" fill="#74CE8C"/>
</g>
</g>
<defs>
<filter id="filter0_i_1_2" x="0" y="0" width="501" height="501" filterUnits="userSpaceOnUse" color-interpolation-filters="sRGB">
<feFlood flood-opacity="0" result="BackgroundImageFix"/>
<feBlend mode="normal" in="SourceGraphic" in2="BackgroundImageFix" result="shape"/>
<feColorMatrix in="SourceAlpha" type="matrix" values="0 0 0 0 0 0 0 0 0 0 0 0 0 0 0 0 0 0 127 0" result="hardAlpha"/>
<feMorphology radius="1" operator="erode" in="SourceAlpha" result="effect1_innerShadow_1_2"/>
<feOffset dx="1" dy="1"/>
<feGaussianBlur stdDeviation="4"/>
<feComposite in2="hardAlpha" operator="arithmetic" k2="-1" k3="1"/>
<feColorMatrix type="matrix" values="0 0 0 0 0 0 0 0 0 0 0 0 0 0 0 0 0 0 1 0"/>
<feBlend mode="normal" in2="shape" result="effect1_innerShadow_1_2"/>
</filter>
<filter id="filter1_f_1_2" x="11" y="-20" width="397" height="68" filterUnits="userSpaceOnUse" color-interpolation-filters="sRGB">
<feFlood flood-opacity="0" result="BackgroundImageFix"/>
<feBlend mode="normal" in="SourceGraphic" in2="BackgroundImageFix" result="shape"/>
<feGaussianBlur stdDeviation="15" result="effect1_foregroundBlur_1_2"/>
</filter>
<filter id="filter2_f_1_2" x="428.844" y="-9.99995" width="87.2805" height="263.793" filterUnits="userSpaceOnUse" color-interpolation-filters="sRGB">
<feFlood flood-opacity="0" result="BackgroundImageFix"/>
<feBlend mode="normal" in="SourceGraphic" in2="BackgroundImageFix" result="shape"/>
<feGaussianBlur stdDeviation="15" result="effect1_foregroundBlur_1_2"/>
</filter>
<filter id="filter3_f_1_2" x="-14.9999" y="2.00005" width="79.2805" height="472.5" filterUnits="userSpaceOnUse" color-interpolation-filters="sRGB">
<feFlood flood-opacity="0" result="BackgroundImageFix"/>
<feBlend mode="normal" in="SourceGraphic" in2="BackgroundImageFix" result="shape"/>
<feGaussianBlur stdDeviation="13" result="effect1_foregroundBlur_1_2"/>
</filter>
<linearGradient id="paint0_linear_1_2" x1="472" y1="21" x2="472" y2="224" gradientUnits="userSpaceOnUse">
<stop stop-color="white"/>
<stop offset="1" stop-color="white" stop-opacity="0.23"/>
</linearGradient>
<clipPath id="clip0_1_2">
<rect width="500" height="500" rx="40" fill="white"/>
</clipPath>
</defs>
</svg>
