<svg width="800" height="500" viewBox="0 0 800 500" fill="none" xmlns="http://www.w3.org/2000/svg">
<rect width="800" height="500" rx="40" fill="#222222"/>
<rect y="282" width="800" height="141" fill="#7565DC" fill-opacity="0.2"/>
<path d="M95.319 294.747C98.1634 294.747 100.483 295.622 102.277 297.372C104.071 299.123 104.968 301.311 104.968 303.936C104.968 306.606 104.071 308.838 102.277 310.632C100.483 312.382 98.1634 313.257 95.319 313.257C92.5183 313.257 90.2209 312.382 88.4267 310.632C86.6325 308.838 85.7354 306.606 85.7354 303.936C85.7354 301.311 86.6325 299.123 88.4267 297.372C90.2209 295.622 92.5183 294.747 95.319 294.747ZM105.559 387.235H124.398V398H70.1128V387.235H90.8554V339.448H70.7692V328.683H105.559V387.235ZM174.2 326.845C180.852 326.845 186.519 328.333 191.201 331.309C195.884 334.284 199.428 338.507 201.835 343.977C204.242 349.404 205.445 355.815 205.445 363.21C205.445 370.562 204.22 376.995 201.769 382.509C199.319 387.979 195.752 392.224 191.07 395.243C186.388 398.263 180.742 399.772 174.135 399.772C167.483 399.772 161.816 398.306 157.134 395.374C152.451 392.442 148.885 388.241 146.434 382.771C144.027 377.301 142.824 370.825 142.824 363.342C142.824 356.121 144.049 349.754 146.5 344.24C148.95 338.726 152.517 334.459 157.199 331.44C161.925 328.377 167.592 326.845 174.2 326.845ZM174.2 338.267C168.861 338.267 164.857 340.323 162.188 344.437C159.562 348.507 158.249 354.808 158.249 363.342C158.249 371.875 159.562 378.198 162.188 382.312C164.814 386.382 168.796 388.416 174.135 388.416C179.473 388.416 183.456 386.382 186.081 382.312C188.707 378.198 190.02 371.831 190.02 363.21C190.02 354.721 188.707 348.441 186.081 344.371C183.456 340.302 179.495 338.267 174.2 338.267ZM306.625 341.286C306.625 339.186 307.151 337.238 308.201 335.444C309.251 333.606 310.673 332.162 312.467 331.112C314.262 330.062 316.253 329.536 318.441 329.536C320.629 329.536 322.62 330.062 324.414 331.112C326.208 332.162 327.631 333.606 328.681 335.444C329.731 337.238 330.256 339.186 330.256 341.286C330.256 343.43 329.731 345.422 328.681 347.259C327.631 349.054 326.208 350.498 324.414 351.592C322.62 352.642 320.629 353.167 318.441 353.167C316.253 353.167 314.262 352.642 312.467 351.592C310.673 350.498 309.251 349.054 308.201 347.259C307.151 345.422 306.625 343.43 306.625 341.286ZM306.625 387.891C306.625 385.791 307.151 383.843 308.201 382.049C309.251 380.255 310.673 378.833 312.467 377.783C314.305 376.732 316.296 376.207 318.441 376.207C320.629 376.207 322.62 376.732 324.414 377.783C326.208 378.833 327.631 380.255 328.681 382.049C329.731 383.843 330.256 385.791 330.256 387.891C330.256 390.036 329.731 392.027 328.681 393.865C327.674 395.659 326.252 397.081 324.414 398.131C322.62 399.225 320.629 399.772 318.441 399.772C316.253 399.772 314.262 399.225 312.467 398.131C310.673 397.081 309.251 395.659 308.201 393.865C307.151 392.027 306.625 390.036 306.625 387.891ZM254.113 341.286C254.113 339.186 254.638 337.238 255.688 335.444C256.738 333.606 258.16 332.162 259.955 331.112C261.749 330.062 263.74 329.536 265.928 329.536C268.116 329.536 270.107 330.062 271.901 331.112C273.695 332.162 275.118 333.606 276.168 335.444C277.218 337.238 277.743 339.186 277.743 341.286C277.743 343.43 277.218 345.422 276.168 347.259C275.118 349.054 273.695 350.498 271.901 351.592C270.107 352.642 268.116 353.167 265.928 353.167C263.74 353.167 261.749 352.642 259.955 351.592C258.16 350.498 256.738 349.054 255.688 347.259C254.638 345.422 254.113 343.43 254.113 341.286ZM254.113 387.891C254.113 385.791 254.638 383.843 255.688 382.049C256.738 380.255 258.182 378.833 260.02 377.783C261.814 376.732 263.784 376.207 265.928 376.207C268.116 376.207 270.107 376.732 271.901 377.783C273.695 378.833 275.118 380.255 276.168 382.049C277.218 383.843 277.743 385.791 277.743 387.891C277.743 390.036 277.24 392.027 276.234 393.865C275.183 395.659 273.761 397.081 271.967 398.131C270.129 399.225 268.116 399.772 265.928 399.772C263.74 399.772 261.749 399.225 259.955 398.131C258.16 397.081 256.738 395.659 255.688 393.865C254.638 392.027 254.113 390.036 254.113 387.891ZM407.89 388.482C412.529 388.482 416.183 387.672 418.852 386.053C421.565 384.39 422.922 382.115 422.922 379.227C422.922 377.214 422.506 375.573 421.675 374.304C420.887 373.035 419.312 371.853 416.949 370.759C414.586 369.621 411.019 368.44 406.249 367.214C401.261 365.945 397.125 364.501 393.843 362.882C390.561 361.219 388.001 359.097 386.163 356.515C384.369 353.889 383.472 350.629 383.472 346.734C383.472 342.796 384.588 339.339 386.819 336.363C389.095 333.344 392.311 331.002 396.469 329.339C400.67 327.677 405.571 326.845 411.172 326.845C421.456 326.845 430.23 329.515 437.494 334.853L431.324 344.109C428.392 342.183 425.307 340.695 422.069 339.645C418.874 338.551 415.373 338.004 411.566 338.004C402.814 338.004 398.438 340.564 398.438 345.684C398.438 347.435 398.941 348.879 399.948 350.016C400.954 351.11 402.661 352.161 405.068 353.167C407.518 354.13 411.194 355.29 416.095 356.646C421.084 358.046 425.176 359.578 428.37 361.241C431.565 362.904 434.037 365.092 435.788 367.805C437.582 370.518 438.479 373.997 438.479 378.242C438.479 383.012 437.079 387.016 434.278 390.254C431.477 393.493 427.758 395.899 423.119 397.475C418.524 399.006 413.448 399.772 407.89 399.772C401.808 399.772 396.403 398.897 391.677 397.147C386.951 395.396 382.859 393.011 379.402 389.992L387.213 381.065C390.014 383.384 393.165 385.2 396.666 386.513C400.21 387.826 403.952 388.482 407.89 388.482Z" fill="#7565DC"/>
<rect x="470" y="263" width="19" height="180" fill="#75CE8E"/>
<path d="M470 39H674C685.046 39 694 47.9543 694 59V243C694 254.046 685.046 263 674 263H470V39Z" fill="#75CE8E"/>
<path d="M85 59C85 47.9543 93.9543 39 105 39H470V263H105C93.9543 263 85 254.046 85 243V59Z" fill="#34934E"/>
<path d="M664.844 148.923L657.792 144.556C657.734 143.87 657.668 143.185 657.594 142.5L663.654 136.85C663.952 136.566 664.175 136.211 664.299 135.819C664.424 135.426 664.447 135.008 664.366 134.603C664.286 134.199 664.104 133.822 663.838 133.507C663.572 133.192 663.231 132.95 662.846 132.803L655.099 129.904C654.908 129.234 654.705 128.567 654.49 127.904L659.323 121.191C659.566 120.855 659.718 120.463 659.766 120.052C659.814 119.641 659.756 119.225 659.598 118.843C659.44 118.46 659.186 118.125 658.861 117.869C658.537 117.612 658.152 117.443 657.743 117.377L649.579 116.051C649.261 115.434 648.932 114.822 648.594 114.215L652.024 106.68C652.197 106.304 652.27 105.89 652.237 105.478C652.203 105.066 652.064 104.669 651.832 104.326C651.602 103.983 651.288 103.704 650.92 103.515C650.552 103.327 650.142 103.235 649.728 103.248L641.437 103.539C641.011 103 640.574 102.471 640.125 101.951L642.032 93.8775C642.126 93.4748 642.116 93.0549 642.002 92.6572C641.889 92.2596 641.676 91.8974 641.384 91.6049C641.092 91.3125 640.73 91.0994 640.332 90.9859C639.935 90.8723 639.515 90.8621 639.113 90.9561L631.04 92.8635C630.513 92.4208 629.982 91.9836 629.445 91.552L629.736 83.2577C629.756 82.8427 629.668 82.4297 629.481 82.0587C629.294 81.6876 629.015 81.3712 628.669 81.1401C628.324 80.909 627.925 80.771 627.511 80.7397C627.097 80.7083 626.682 80.7845 626.306 80.961L618.774 84.3991C618.163 84.0658 617.554 83.7325 616.938 83.4139L615.605 75.2401C615.536 74.8335 615.365 74.4512 615.108 74.1288C614.851 73.8064 614.516 73.5545 614.135 73.3966C613.754 73.2387 613.34 73.18 612.93 73.226C612.52 73.272 612.129 73.4212 611.793 73.6596L605.074 78.4947C604.412 78.2823 603.746 78.0816 603.076 77.8925L600.178 70.1438C600.031 69.7586 599.789 69.417 599.474 69.1509C599.159 68.8849 598.782 68.703 598.378 68.6223C597.973 68.5415 597.555 68.5646 597.162 68.6894C596.77 68.8142 596.415 69.0365 596.131 69.3357L590.483 75.4039C589.799 75.3268 589.114 75.2605 588.428 75.2051L584.062 68.1509C583.845 67.7991 583.542 67.5086 583.181 67.3072C582.82 67.1057 582.413 67 582 67C581.587 67 581.18 67.1057 580.819 67.3072C580.458 67.5086 580.155 67.7991 579.938 68.1509L575.573 75.2044C574.887 75.2633 574.202 75.3296 573.517 75.4032L567.862 69.335C567.58 69.0322 567.226 68.8065 566.832 68.6795C566.438 68.5524 566.019 68.5283 565.613 68.6092C565.208 68.6902 564.83 68.8737 564.515 69.1422C564.2 69.4107 563.96 69.7552 563.816 70.1431L560.917 77.8911C560.244 78.083 559.585 78.2882 558.919 78.4933L552.208 73.6596C551.871 73.4212 551.48 73.2721 551.07 73.2261C550.66 73.1801 550.245 73.2389 549.864 73.3968C549.484 73.5548 549.149 73.8068 548.892 74.1292C548.635 74.4517 548.464 74.8341 548.395 75.2408L547.062 83.4139C546.445 83.7325 545.834 84.061 545.227 84.3991L537.693 80.961C537.317 80.7887 536.903 80.7157 536.491 80.749C536.078 80.7822 535.681 80.9206 535.337 81.1508C534.993 81.3811 534.714 81.6956 534.526 82.0644C534.338 82.4333 534.248 82.8441 534.263 83.2577L534.555 91.552C534.015 91.9793 533.483 92.4166 532.96 92.8635L524.888 90.9554C524.486 90.8613 524.066 90.8714 523.668 90.9849C523.271 91.0983 522.909 91.3113 522.616 91.6037C522.324 91.8961 522.111 92.2582 521.998 92.6558C521.884 93.0534 521.874 93.4734 521.968 93.8761L523.868 101.95C523.428 102.476 522.989 103.007 522.563 103.539L514.272 103.248C513.858 103.232 513.448 103.323 513.079 103.511C512.71 103.699 512.396 103.978 512.166 104.322C511.935 104.666 511.797 105.063 511.764 105.476C511.731 105.888 511.804 106.303 511.976 106.679L515.413 114.214C515.075 114.821 514.746 115.433 514.428 116.05L506.264 117.377C505.858 117.446 505.476 117.617 505.153 117.874C504.831 118.131 504.579 118.466 504.421 118.847C504.264 119.228 504.205 119.642 504.251 120.052C504.297 120.462 504.446 120.853 504.684 121.19L509.517 127.903C509.306 128.567 509.103 129.234 508.908 129.902L501.162 132.801C500.777 132.948 500.435 133.191 500.169 133.506C499.903 133.82 499.721 134.198 499.64 134.602C499.56 135.006 499.583 135.425 499.707 135.818C499.832 136.211 500.054 136.566 500.353 136.849L506.413 142.5C506.336 143.184 506.27 143.869 506.215 144.555L499.163 148.922C498.808 149.137 498.515 149.439 498.311 149.801C498.107 150.162 498 150.57 498 150.985C498 151.4 498.107 151.808 498.311 152.169C498.515 152.531 498.808 152.833 499.163 153.048L506.215 157.414C506.271 158.102 506.342 158.79 506.413 159.47L500.353 165.128C500.051 165.409 499.825 165.764 499.698 166.158C499.571 166.552 499.547 166.971 499.628 167.377C499.709 167.783 499.893 168.161 500.161 168.476C500.43 168.79 500.774 169.031 501.162 169.175L508.908 172.075C509.099 172.748 509.304 173.415 509.517 174.074L504.684 180.787C504.439 181.122 504.285 181.515 504.236 181.927C504.187 182.339 504.246 182.757 504.405 183.141C504.565 183.524 504.82 183.86 505.147 184.115C505.474 184.371 505.861 184.538 506.271 184.601L514.435 185.927C514.754 186.543 515.08 187.153 515.42 187.763L511.983 195.298C511.811 195.675 511.738 196.089 511.771 196.502C511.805 196.914 511.943 197.312 512.173 197.656C512.403 198 512.718 198.279 513.087 198.467C513.455 198.655 513.866 198.745 514.279 198.73L522.563 198.439C522.996 198.977 523.428 199.509 523.875 200.033L521.975 208.115C521.881 208.517 521.891 208.937 522.004 209.335C522.117 209.732 522.33 210.094 522.623 210.386C522.915 210.678 523.278 210.891 523.676 211.003C524.073 211.115 524.493 211.124 524.895 211.028L532.966 209.129C533.491 209.575 534.023 210.008 534.562 210.433L534.271 218.728C534.253 219.142 534.341 219.554 534.529 219.924C534.716 220.294 534.996 220.61 535.341 220.84C535.686 221.07 536.084 221.207 536.498 221.239C536.911 221.27 537.326 221.193 537.701 221.017L545.234 217.586C545.843 217.926 546.453 218.252 547.069 218.571L548.402 226.738C548.47 227.145 548.64 227.528 548.897 227.851C549.153 228.175 549.488 228.428 549.869 228.586C550.25 228.745 550.665 228.804 551.075 228.759C551.486 228.713 551.878 228.564 552.215 228.326L558.926 223.491C559.588 223.705 560.255 223.908 560.924 224.1L563.822 231.849C563.964 232.239 564.204 232.585 564.519 232.855C564.834 233.124 565.212 233.309 565.619 233.39C566.025 233.471 566.445 233.446 566.84 233.318C567.234 233.19 567.588 232.962 567.869 232.657L573.524 226.596C574.205 226.674 574.892 226.738 575.579 226.802L579.945 233.855C580.163 234.206 580.467 234.494 580.828 234.695C581.189 234.895 581.594 235 582.007 235C582.42 235 582.825 234.895 583.186 234.695C583.547 234.494 583.851 234.206 584.069 233.855L588.435 226.802C589.122 226.738 589.809 226.674 590.49 226.596L596.138 232.657C596.422 232.956 596.777 233.178 597.169 233.303C597.562 233.428 597.98 233.451 598.384 233.37C598.788 233.289 599.165 233.108 599.48 232.842C599.795 232.576 600.037 232.234 600.184 231.849L603.083 224.1C603.753 223.909 604.419 223.706 605.081 223.491L611.793 228.326C612.128 228.57 612.52 228.724 612.933 228.773C613.345 228.822 613.762 228.764 614.146 228.604C614.529 228.445 614.864 228.189 615.12 227.862C615.376 227.535 615.543 227.148 615.605 226.738L616.938 218.571C617.554 218.252 618.163 217.919 618.773 217.586L626.307 221.017C626.682 221.187 627.095 221.259 627.506 221.225C627.918 221.191 628.313 221.053 628.656 220.824C629 220.595 629.279 220.282 629.468 219.916C629.657 219.549 629.749 219.14 629.737 218.728L629.446 210.433C629.984 210.01 630.514 209.575 631.033 209.129L639.105 211.028C639.507 211.122 639.926 211.112 640.322 210.999C640.719 210.886 641.08 210.673 641.372 210.382C641.664 210.091 641.878 209.73 641.992 209.333C642.106 208.937 642.117 208.518 642.025 208.116L640.125 200.033C640.565 199.509 641.004 198.977 641.43 198.438L649.721 198.729C650.136 198.749 650.549 198.661 650.92 198.474C651.291 198.287 651.607 198.007 651.838 197.662C652.069 197.317 652.207 196.918 652.239 196.503C652.27 196.089 652.194 195.674 652.017 195.298L648.587 187.763C648.92 187.153 649.253 186.543 649.572 185.927L657.736 184.601C658.142 184.532 658.524 184.361 658.847 184.104C659.169 183.846 659.421 183.512 659.579 183.131C659.737 182.75 659.796 182.335 659.75 181.925C659.704 181.515 659.555 181.123 659.316 180.787L654.483 174.074L655.092 172.075L662.839 169.176C663.227 169.032 663.571 168.791 663.84 168.476C664.108 168.161 664.292 167.783 664.373 167.377C664.454 166.971 664.429 166.552 664.302 166.158C664.175 165.764 663.949 165.409 663.647 165.128L657.587 159.47C657.658 158.79 657.729 158.102 657.785 157.414L664.837 153.048C665.192 152.833 665.485 152.531 665.689 152.169C665.893 151.808 666 151.4 666 150.985C666 150.57 665.893 150.162 665.689 149.801C665.485 149.439 665.192 149.137 664.837 148.922L664.844 148.923ZM617.654 207.428C616.364 207.144 615.239 206.362 614.525 205.251C613.81 204.141 613.564 202.792 613.84 201.501C614.116 200.209 614.892 199.079 615.998 198.358C617.105 197.637 618.451 197.384 619.744 197.653C620.395 197.781 621.013 198.038 621.564 198.408C622.114 198.778 622.585 199.254 622.95 199.809C623.315 200.363 623.565 200.984 623.688 201.636C623.81 202.288 623.801 202.958 623.662 203.607C623.523 204.256 623.256 204.87 622.877 205.415C622.498 205.959 622.014 206.423 621.454 206.778C620.894 207.134 620.269 207.374 619.615 207.486C618.962 207.597 618.292 207.578 617.646 207.428H617.654ZM615.258 191.223C614.674 191.097 614.07 191.088 613.482 191.196C612.894 191.304 612.333 191.527 611.831 191.852C611.33 192.177 610.897 192.599 610.558 193.091C610.22 193.584 609.982 194.139 609.858 194.724L607.357 206.408C599.632 209.916 591.057 211.866 582.021 211.866C573.086 211.879 564.257 209.933 556.155 206.166L553.653 194.483C553.529 193.899 553.291 193.344 552.952 192.851C552.614 192.359 552.181 191.938 551.679 191.614C551.177 191.289 550.616 191.067 550.028 190.959C549.44 190.852 548.837 190.862 548.253 190.989L537.942 193.201C536.026 191.227 534.246 189.126 532.613 186.912H582.787C583.354 186.912 583.736 186.814 583.736 186.296V168.538C583.736 168.02 583.361 167.921 582.787 167.921H568.11V156.664H583.985C585.43 156.664 591.73 157.075 593.743 165.128C594.373 167.602 595.755 175.663 596.705 178.243C597.647 181.135 601.488 186.912 605.585 186.912H630.586C630.891 186.908 631.194 186.878 631.494 186.821C629.76 189.177 627.861 191.406 625.81 193.491L615.258 191.223ZM545.858 207.187C545.212 207.337 544.542 207.357 543.888 207.245C543.235 207.134 542.609 206.893 542.05 206.537C541.49 206.182 541.006 205.718 540.627 205.174C540.248 204.629 539.981 204.015 539.842 203.366C539.703 202.717 539.694 202.047 539.816 201.395C539.938 200.743 540.189 200.122 540.554 199.568C540.918 199.014 541.39 198.538 541.94 198.167C542.491 197.797 543.109 197.54 543.76 197.412C545.046 197.157 546.381 197.419 547.477 198.14C548.572 198.862 549.34 199.985 549.615 201.267C549.891 202.55 549.651 203.889 548.948 204.997C548.245 206.104 547.135 206.891 545.858 207.187ZM526.823 129.974C527.112 130.577 527.277 131.231 527.308 131.899C527.339 132.567 527.236 133.234 527.005 133.861C526.774 134.488 526.42 135.063 525.963 135.55C525.506 136.038 524.956 136.429 524.345 136.701C523.734 136.972 523.076 137.118 522.407 137.13C521.739 137.142 521.076 137.02 520.456 136.771C519.835 136.522 519.272 136.151 518.797 135.68C518.323 135.209 517.948 134.647 517.695 134.029C517.203 132.826 517.199 131.479 517.684 130.273C518.169 129.067 519.105 128.098 520.292 127.57C521.479 127.043 522.825 126.999 524.045 127.448C525.264 127.897 526.261 128.803 526.823 129.974V129.974ZM520.976 143.847L531.72 139.069C532.266 138.826 532.759 138.478 533.171 138.045C533.583 137.611 533.906 137.101 534.12 136.542C534.335 135.984 534.437 135.389 534.422 134.791C534.406 134.193 534.273 133.604 534.03 133.058L531.819 128.053H540.522V167.284H522.967C520.803 159.67 520.129 151.709 520.983 143.84L520.976 143.847ZM568.117 140.04V128.478H588.838C589.909 128.478 596.393 129.719 596.393 134.568C596.393 138.594 591.418 140.04 587.329 140.04H568.117ZM643.42 150.447C643.42 151.979 643.364 153.502 643.25 155.006H636.95C636.32 155.006 636.065 155.416 636.065 156.04V158.932C636.065 165.745 632.224 167.227 628.857 167.602C625.654 167.964 622.104 166.263 621.665 164.299C619.772 153.665 616.626 151.39 611.651 147.47C617.823 143.549 624.244 137.765 624.244 130.023C624.244 121.665 618.511 116.398 614.606 113.811C609.128 110.196 603.062 109.473 601.425 109.473H536.277C545.28 99.4021 557.354 92.5844 570.626 90.0773L578.308 98.137C578.72 98.5701 579.213 98.9177 579.759 99.1597C580.305 99.4018 580.894 99.5335 581.491 99.5473C582.088 99.5612 582.682 99.4569 583.239 99.2405C583.796 99.024 584.304 98.6997 584.736 98.2861L593.325 90.0633C602.083 91.7063 610.378 95.2355 617.636 100.406C624.894 105.577 630.941 112.265 635.356 120.007L629.474 133.298C628.987 134.402 628.956 135.655 629.389 136.781C629.822 137.908 630.683 138.817 631.784 139.31L643.109 144.343C643.307 146.356 643.406 148.384 643.406 150.447H643.42ZM578.315 83.2297C579.273 82.316 580.554 81.8203 581.877 81.8515C582.532 81.867 583.178 82.0114 583.777 82.2764C584.376 82.5415 584.918 82.9221 585.37 83.3964C585.822 83.8707 586.177 84.4295 586.413 85.0408C586.649 85.6521 586.763 86.3041 586.748 86.9594C586.732 87.6147 586.588 88.2605 586.323 88.86C586.058 89.4595 585.677 90.0009 585.203 90.4533C584.233 91.2914 582.977 91.7242 581.697 91.6621C580.416 91.6 579.208 91.0478 578.323 90.1198C577.439 89.1917 576.944 87.9589 576.943 86.6764C576.941 85.3939 577.432 84.1599 578.315 83.2297ZM636.688 130.215C636.953 129.616 637.333 129.074 637.806 128.622C638.28 128.17 638.839 127.816 639.45 127.58C640.061 127.344 640.712 127.231 641.367 127.248C642.022 127.265 642.667 127.41 643.265 127.677C644.169 128.076 644.935 128.735 645.465 129.57C645.995 130.404 646.266 131.377 646.243 132.366C646.22 133.355 645.904 134.314 645.335 135.123C644.767 135.932 643.971 136.554 643.049 136.911C642.127 137.267 641.12 137.342 640.155 137.126C639.191 136.909 638.312 136.412 637.63 135.696C636.949 134.98 636.494 134.077 636.326 133.103C636.157 132.129 636.281 131.126 636.681 130.222L636.688 130.215Z" fill="black"/>
<path d="M159.873 106.803C159.873 109.998 158.921 112.645 157.017 114.746C155.136 116.846 152.652 118.356 149.567 119.275L162.4 139H153.538L142.15 120.358H137.194V139H129.579V93.7077H142.215C148.057 93.7077 152.455 94.8017 155.409 96.9897C158.385 99.1778 159.873 102.449 159.873 106.803ZM151.897 106.803C151.897 104.199 151.143 102.307 149.633 101.125C148.123 99.9436 145.793 99.3528 142.642 99.3528H137.194V114.778H142.806C145.804 114.778 148.068 114.144 149.6 112.875C151.132 111.606 151.897 109.582 151.897 106.803ZM176.569 128.563C176.569 130.576 176.963 132.031 177.75 132.928C178.56 133.825 179.818 134.274 181.525 134.274C183.056 134.274 184.555 133.814 186.021 132.895C187.509 131.976 188.691 130.817 189.566 129.416V104.342H196.918V139H190.583L190.124 134.569C188.855 136.254 187.236 137.567 185.266 138.508C183.319 139.427 181.295 139.886 179.194 139.886C175.891 139.886 173.396 138.978 171.711 137.162C170.049 135.346 169.217 132.786 169.217 129.482V104.342H176.569V128.563ZM221.195 134.241C223.514 134.241 225.341 133.836 226.676 133.027C228.033 132.195 228.711 131.057 228.711 129.613C228.711 128.607 228.503 127.786 228.087 127.152C227.694 126.517 226.906 125.926 225.724 125.379C224.543 124.811 222.76 124.22 220.375 123.607C217.88 122.973 215.813 122.251 214.172 121.441C212.531 120.61 211.251 119.548 210.332 118.257C209.434 116.945 208.986 115.315 208.986 113.367C208.986 111.398 209.544 109.669 210.66 108.182C211.798 106.672 213.406 105.501 215.484 104.67C217.585 103.838 220.035 103.423 222.836 103.423C227.978 103.423 232.365 104.757 235.997 107.427L232.912 112.054C231.446 111.092 229.904 110.348 228.284 109.823C226.687 109.276 224.937 109.002 223.033 109.002C218.657 109.002 216.469 110.282 216.469 112.842C216.469 113.717 216.721 114.439 217.224 115.008C217.727 115.555 218.58 116.08 219.784 116.584C221.009 117.065 222.847 117.645 225.298 118.323C227.792 119.023 229.838 119.789 231.435 120.621C233.032 121.452 234.269 122.546 235.144 123.903C236.041 125.259 236.489 126.999 236.489 129.121C236.489 131.506 235.789 133.508 234.389 135.127C232.989 136.746 231.129 137.95 228.809 138.737C226.512 139.503 223.974 139.886 221.195 139.886C218.154 139.886 215.452 139.449 213.088 138.573C210.725 137.698 208.68 136.506 206.951 134.996L210.857 130.532C212.257 131.692 213.832 132.6 215.583 133.256C217.355 133.913 219.226 134.241 221.195 134.241ZM276.915 137.162C275.624 137.994 274.081 138.65 272.287 139.131C270.515 139.635 268.688 139.886 266.806 139.886C264.159 139.886 261.916 139.416 260.078 138.475C258.24 137.534 256.85 136.21 255.91 134.504C254.969 132.797 254.498 130.795 254.498 128.497V109.691H246.786V104.342H254.498V96.5959L261.85 95.7097V104.342H273.534L272.714 109.691H261.85V128.432C261.85 130.314 262.321 131.703 263.261 132.6C264.202 133.497 265.723 133.946 267.823 133.946C270.143 133.946 272.287 133.399 274.256 132.305L276.915 137.162Z" fill="white"/>
<path d="M135.454 192.104L132.304 203H124.558L138.966 157.708H148.418L162.859 203H154.786L151.635 192.104H135.454ZM150.027 186.229L143.561 163.615L137.03 186.229H150.027ZM175.551 168.342L176.109 172.838C177.532 171.109 179.227 169.775 181.197 168.834C183.166 167.893 185.201 167.423 187.301 167.423C190.496 167.423 192.903 168.32 194.522 170.114C196.163 171.886 196.983 174.424 196.983 177.728V203H189.631V181.371C189.631 179.227 189.5 177.575 189.238 176.415C188.997 175.256 188.516 174.402 187.793 173.855C187.093 173.308 186.054 173.035 184.676 173.035C183.1 173.035 181.612 173.516 180.212 174.479C178.833 175.442 177.619 176.656 176.569 178.122V203H169.217V168.342H175.551ZM235.078 194.499C235.078 195.834 235.275 196.819 235.669 197.453C236.085 198.088 236.763 198.558 237.704 198.865L236.063 203.853C234.291 203.656 232.803 203.175 231.599 202.409C230.396 201.643 229.488 200.528 228.875 199.062C227.628 200.637 226.042 201.84 224.116 202.672C222.191 203.481 220.09 203.886 217.815 203.886C215.495 203.886 213.471 203.438 211.743 202.541C210.036 201.643 208.723 200.385 207.804 198.766C206.885 197.147 206.426 195.265 206.426 193.121C206.426 189.467 207.848 186.655 210.693 184.686C213.559 182.717 217.629 181.732 222.902 181.732H227.858V179.468C227.858 177.28 227.201 175.682 225.888 174.676C224.576 173.669 222.661 173.166 220.145 173.166C218.941 173.166 217.53 173.319 215.911 173.626C214.292 173.932 212.629 174.381 210.922 174.971L209.117 169.786C211.218 168.998 213.307 168.407 215.386 168.013C217.465 167.619 219.423 167.423 221.261 167.423C225.834 167.423 229.28 168.429 231.599 170.442C233.919 172.455 235.078 175.321 235.078 179.041V194.499ZM220.046 198.471C221.556 198.471 223.011 198.077 224.412 197.289C225.834 196.48 226.982 195.375 227.858 193.974V186.327H223.788C220.44 186.327 217.99 186.885 216.436 188.001C214.905 189.095 214.139 190.692 214.139 192.793C214.139 194.653 214.631 196.064 215.616 197.027C216.622 197.989 218.099 198.471 220.046 198.471ZM263.196 193.548C263.196 195.079 263.655 196.195 264.574 196.895C265.515 197.596 266.806 197.946 268.447 197.946C270.197 197.946 272.024 197.563 273.928 196.797L275.799 201.917C273.217 203.23 270.241 203.886 266.872 203.886C264.574 203.886 262.594 203.449 260.931 202.573C259.268 201.676 257.999 200.407 257.124 198.766C256.271 197.103 255.844 195.145 255.844 192.891V159.841H245.374V154.426H263.196V193.548ZM305.722 203.131C304.299 207.354 302.264 210.647 299.617 213.01C296.991 215.395 293.37 216.785 288.753 217.178L287.802 211.665C290.099 211.315 291.937 210.778 293.315 210.056C294.716 209.356 295.821 208.448 296.63 207.332C297.462 206.238 298.217 204.794 298.895 203H296.401L284.716 168.342H292.528L301.258 197.88L310.119 168.342H317.668L305.722 203.131ZM354.221 197.092L353.433 203H326.848V197.617L345.293 174.249H328.325V168.342H353.991V173.724L335.677 197.092H354.221ZM372.197 188.034C372.394 191.425 373.345 193.963 375.052 195.648C376.781 197.333 378.98 198.175 381.649 198.175C383.29 198.175 384.833 197.924 386.277 197.421C387.721 196.917 389.209 196.162 390.74 195.156L393.924 199.554C392.283 200.91 390.368 201.972 388.18 202.737C385.992 203.503 383.695 203.886 381.288 203.886C377.765 203.886 374.746 203.131 372.229 201.622C369.713 200.09 367.81 197.957 366.519 195.222C365.228 192.486 364.582 189.314 364.582 185.704C364.582 182.225 365.217 179.107 366.486 176.35C367.777 173.571 369.615 171.394 372 169.818C374.385 168.221 377.185 167.423 380.402 167.423C383.443 167.423 386.08 168.123 388.312 169.523C390.565 170.902 392.294 172.893 393.497 175.496C394.722 178.1 395.335 181.185 395.335 184.752C395.335 185.955 395.28 187.049 395.171 188.034H372.197ZM380.467 172.871C378.082 172.871 376.157 173.724 374.691 175.431C373.225 177.116 372.383 179.643 372.164 183.012H388.213C388.147 179.752 387.447 177.247 386.113 175.496C384.778 173.746 382.896 172.871 380.467 172.871ZM430.05 167.455C431.012 167.455 431.899 167.532 432.708 167.685C433.518 167.838 434.371 168.057 435.268 168.342L434.021 181.109H428.77V174.052C426.341 174.14 424.24 175.114 422.468 176.973C420.696 178.811 419.284 181.448 418.234 184.883V197.749H425.225V203H405.795V197.749H410.882V173.56H405.795V168.342H416.495L417.84 176.383C419.175 173.385 420.805 171.153 422.731 169.687C424.678 168.199 427.118 167.455 430.05 167.455Z" fill="#FFB884"/>
</svg>
